<svg width="432" height="432" viewBox="0 0 432 432" fill="none" xmlns="http://www.w3.org/2000/svg">
<path d="M22.7597 215.951C22.7597 215.951 13.8872 240.631 22.7597 266.569C31.6323 292.506 34.8116 328.927 67.6694 313.031C100.527 297.134 98.7232 279.862 98.7232 279.862L56.0908 211.574L22.7597 215.951Z" fill="#F4A28C"/>
<path d="M22.7597 215.951C22.7597 215.951 13.8872 240.631 22.7597 266.569C31.6323 292.506 34.8116 328.927 67.6694 313.031C100.527 297.134 98.7232 279.862 98.7232 279.862L56.0908 211.574L22.7597 215.951Z" fill="#757C7F"/>
<path d="M397.608 84.7266H135.352V266.702H397.608V84.7266Z" fill="#DBDEDF"/>
<path d="M376.403 101.303H156.039V248.38H376.403V101.303Z" fill="#E6E6E6"/>
<path d="M176.771 164.254C176.771 164.254 188.306 164.757 181.385 174.309C174.464 183.862 178.871 184.099 183.603 190.029C188.335 195.958 170.56 266.687 170.56 266.687H135.366L151.352 235.042L169.481 174.309L176.771 164.254Z" fill="#757C7F"/>
<path d="M83.2403 140.742C84.53 140.132 85.9519 139.854 87.3763 139.935C88.8007 140.015 90.1823 140.451 91.3952 141.202C92.608 141.953 93.6136 142.996 94.3201 144.236C95.0266 145.475 95.4116 146.872 95.44 148.298C95.6618 155.071 94.6563 164.653 87.0998 163.707C75.5064 162.228 76.926 147.189 76.926 147.189C78.3511 144.466 80.5474 142.223 83.2403 140.742V140.742Z" fill="#F4A28C"/>
<path d="M120.49 192.365C109.377 182.55 95.5067 176.403 80.7712 174.762C66.0357 173.121 51.1528 176.067 38.1531 183.197C26.5893 189.585 17.1844 199.862 19.5209 216.232C25.007 254.68 51.4767 282.066 49.2881 315.175L117.843 316.965L121.806 274.45C122.163 270.428 123.349 266.523 125.291 262.983C127.233 259.443 129.888 256.343 133.089 253.881C139.536 248.957 146.279 240.572 143.44 227.958C140.793 216.72 132.69 203.189 120.49 192.365Z" fill="#FF3E3E"/>
<path d="M91.7574 230.325C91.7574 230.325 107.107 247.035 86.8775 260.166C66.6482 273.297 79.8091 315.989 79.8091 315.989L49.2877 315.19C49.2877 315.19 52.0234 296.587 35.0325 262.68C18.0416 228.772 84.1714 192.927 84.1714 192.927L91.7574 230.325Z" fill="#757C7F"/>
<path d="M76.8073 189.467C76.7772 185.986 77.7258 182.567 79.5451 179.599C81.3643 176.631 83.981 174.234 87.0967 172.682C90.2123 171.129 93.7015 170.484 97.1663 170.819C100.631 171.154 103.932 172.455 106.693 174.576L107.21 174.975C124.763 188.757 130.456 240.321 130.456 240.321C130.456 240.321 157.991 193.001 162.989 180.476C167.987 167.951 173.089 158.014 177.126 158.65C181.163 159.285 172.556 170.687 172.556 170.687C172.556 170.687 183.159 173.334 181.059 180.091C180.354 182.098 179.151 183.892 177.563 185.307C175.975 186.722 174.054 187.71 171.98 188.18C171.98 188.18 159.751 294.266 121.569 276.595C101.769 267.412 77.2805 227.515 76.8073 189.467Z" fill="#F4A28C"/>
<path d="M96.1053 129.799C96.1053 129.799 99.0628 140.15 89.3918 145.089C79.7207 150.028 106.457 172.801 85.1034 194.213C63.7502 215.626 99.329 237.378 72.6079 251.19C45.8869 265.001 25.0957 270.236 13.2361 245.422C1.37648 220.609 10.9736 198.945 28.896 182.073C46.8185 165.2 56.7705 161.163 58.9147 140.786C61.0589 120.409 93.0443 114.878 96.1053 129.799Z" fill="#24285B"/>
<path d="M49.5986 141.185L110.006 123.337L93.9612 121.37L92.8965 119.315C91.3662 116.11 88.7199 113.573 85.4533 112.179C82.1867 110.785 78.524 110.63 75.1515 111.743L69.34 113.666C66.1541 114.719 63.4289 116.838 61.624 119.667C59.8191 122.495 59.0451 125.86 59.4323 129.193L59.5506 130.257L49.5986 141.185Z" fill="#D3EBF1"/>
<path d="M59.5206 130.228C59.5206 130.228 74.7073 126.96 93.8867 121.355C93.2056 119.769 92.3789 118.249 91.4172 116.815C80.9573 120.013 70.3286 122.629 59.5797 124.653C59.2393 126.494 59.2193 128.38 59.5206 130.228V130.228Z" fill="#757C7F"/>
<path d="M89.2584 243.042L129.081 227.263C129.081 227.263 124.039 175.389 99.6836 169.37C75.3286 163.352 63.6316 189.91 89.2584 243.042Z" fill="#FF3E3E"/>
<path opacity="0.44" d="M89.2584 243.042L129.081 227.263C129.081 227.263 124.039 175.389 99.6836 169.37C75.3286 163.352 63.6316 189.91 89.2584 243.042Z" fill="white"/>
<path d="M49.2881 315.175L41.5986 374H131.433L117.843 316.965L49.2881 315.175Z" fill="#24285B"/>
<path d="M338.266 248.469H298.236V282.82H338.266V248.469Z" fill="#D3EBF1"/>
<path opacity="0.53" d="M323.049 240.853H313.452V255.049H323.049V240.853Z" fill="white"/>
<path d="M391.796 248.469H351.767V282.82H391.796V248.469Z" fill="#D3EBF1"/>
<path opacity="0.53" d="M376.58 240.853H366.983V255.049H376.58V240.853Z" fill="white"/>
<g opacity="0.51">
<path opacity="0.51" d="M264.254 147.795C264.358 148.041 264.388 148.312 264.341 148.574C264.294 148.837 264.171 149.08 263.988 149.274C263.965 149.371 263.964 149.473 263.987 149.571C264.01 149.669 264.056 149.759 264.121 149.836C264.344 150.057 264.637 150.193 264.949 150.22C265.393 150.22 265.911 149.792 266.162 150.487C267.064 150.487 267.715 149.54 268.691 150.013C268.927 150.132 269.401 149.747 269.8 149.585C269.77 149.299 269.77 149.012 269.8 148.727C270.022 147.529 270.229 147.47 271.19 148.224C271.559 147.899 271.707 147.603 271.19 147.174C270.672 146.745 270.909 146.538 271.412 146.39C271.914 146.243 272.151 146.287 272.521 146.257L273.999 146.139V145.932C273.742 145.84 273.474 145.785 273.201 145.769C272.681 145.935 272.146 146.049 271.604 146.109C270.997 146.063 270.41 145.876 269.888 145.562C269.622 145.385 269.977 143.891 270.288 143.669C270.835 143.226 271.397 142.782 272.151 142.191C271.767 142.058 271.426 141.821 271.16 141.895C270.699 142.032 270.271 142.264 269.903 142.575C269.593 142.841 269.401 143.211 269.105 143.507C268.809 143.803 268.351 143.965 268.07 144.276C267.522 144.852 267.596 145.267 268.217 145.755C268.293 145.789 268.361 145.839 268.417 145.901C268.473 145.962 268.517 146.035 268.544 146.113C268.572 146.192 268.583 146.275 268.578 146.358C268.573 146.442 268.551 146.523 268.513 146.597C268.436 146.749 268.304 146.866 268.144 146.923C267.934 147.021 267.755 147.175 267.627 147.368C267.499 147.561 267.427 147.786 267.419 148.017C267.419 148.475 267.419 149.141 266.547 148.963C265.541 150.28 265.571 148.963 265.29 148.475C265.249 148.373 265.2 148.274 265.142 148.18C264.861 147.721 264.654 147.056 264.24 146.878C263.826 146.701 263.397 147.292 262.938 147.499C262.687 147.589 262.411 147.579 262.166 147.472C261.922 147.364 261.727 147.168 261.622 146.923C261.426 146.449 261.291 145.952 261.223 145.444C261.215 145.269 261.244 145.095 261.308 144.932C261.372 144.769 261.469 144.621 261.593 144.498C262.187 143.947 262.901 143.542 263.678 143.315C264.269 143.02 264.777 142.583 265.156 142.043C265.778 141.348 266.354 140.564 266.872 139.928L265.718 140.209C265.986 139.959 266.278 139.736 266.591 139.544C266.922 139.43 267.264 139.351 267.611 139.307C267.951 139.115 268.513 138.464 268.942 138.553C269.711 138.701 270.273 138.124 270.998 138.302C271.338 138.376 271.781 137.976 272.343 137.71L272.047 138.331C272.354 138.175 272.683 138.07 273.023 138.021C273.584 138.095 274.138 138.214 274.68 138.376L274.487 138.671C275.67 138.952 276.868 139.174 278.022 139.514C278.679 139.72 279.313 139.993 279.914 140.328C280.417 140.579 280.447 140.949 279.914 141.215C278.924 141.592 277.829 141.592 276.839 141.215C276.528 141.094 276.193 141.053 275.863 141.096L276.794 141.584C276.794 142.694 277.474 143.27 278.569 142.945L277.829 142.472V142.294L279.722 142.59L279.382 141.895C279.752 141.718 280.136 141.555 280.521 141.407C280.94 141.318 281.365 141.259 281.792 141.23C281.653 141.039 281.552 140.823 281.497 140.594C281.46 140.255 281.46 139.912 281.497 139.573L282.975 139.884V140.165L282.28 140.416C282.813 141.23 283.02 141.156 283.759 140.608C284.38 140.209 285.051 139.896 285.755 139.677C286.012 139.6 286.274 139.546 286.539 139.514C287.101 140.416 287.929 139.514 288.669 139.514C288.994 139.514 289.364 139.041 289.645 139.647C289.94 139.574 290.231 139.485 290.517 139.381L289.038 138.287C290.069 138.419 291.091 138.612 292.099 138.864C292.901 139.278 293.774 139.539 294.672 139.633C294.355 139.462 294.091 139.208 293.909 138.897C293.726 138.587 293.632 138.233 293.637 137.873C293.934 137.439 294.281 137.041 294.672 136.69C295.067 136.494 295.504 136.398 295.944 136.409C296.273 136.439 296.597 136.513 296.905 136.631L296.432 137.311L296.787 139.706L297.127 139.81L295.648 141.289C295.901 141.353 296.166 141.358 296.421 141.302C296.676 141.247 296.915 141.133 297.119 140.969C297.322 140.806 297.485 140.597 297.594 140.36C297.703 140.123 297.756 139.864 297.748 139.603C298.236 139.603 298.857 139.366 298.902 140.239C299.464 139.751 299.33 139.322 298.65 139.278H297.275C297.275 138.701 297.157 138.124 297.098 137.444L298.073 136.808V137.651L298.931 137.784L298.295 137.237L299.33 137.37V137.193L298.828 136.852V136.675C299.464 136.867 300.085 137.074 300.765 137.267C301.018 137.326 301.275 137.371 301.534 137.4C301.541 137.331 301.541 137.261 301.534 137.193C301.312 137.074 301.075 136.986 300.735 136.838L300.513 136.098L303.826 135.817L303.338 135.285C304.857 134.562 306.54 134.251 308.218 134.383C308.813 134.368 309.404 134.279 309.977 134.117C309.977 134.117 310.066 134.117 310.111 134.043C310.654 133.986 311.169 133.77 311.589 133.422C312.225 132.978 312.95 132.446 313.63 133.422C313.763 133.614 314.177 133.599 314.443 133.688C315.334 133.614 316.229 133.614 317.12 133.688C317.445 133.688 317.682 134.309 317.977 134.664L314.251 135.995V136.143C314.488 136.143 314.739 136.143 314.99 136.143C315.242 136.143 315.626 136.143 315.804 136.143C316.647 135.507 317.504 135.891 318.362 135.995C318.702 135.995 319.087 135.788 319.412 135.847C319.818 135.948 320.2 136.129 320.536 136.379C320.891 136.594 321.313 136.669 321.72 136.59C322.127 136.511 322.491 136.283 322.739 135.95C322.829 135.883 322.932 135.835 323.042 135.81C323.151 135.784 323.264 135.782 323.375 135.803L325.889 136.202C325.785 137.163 325.889 137.976 327.087 138.006L327.427 137.444H331.405L330.991 136.764C331.962 136.559 332.96 136.504 333.948 136.601C334.82 136.838 335.944 136.601 336.906 137.37C337.714 137.76 338.616 137.914 339.508 137.814C340.395 137.814 341.327 137.651 341.963 138.612C342.111 138.819 342.658 138.79 343.013 138.819C343.574 138.849 344.137 138.849 344.699 138.819C345.107 138.774 345.513 138.7 345.911 138.597C346.167 138.583 346.424 138.583 346.68 138.597L346.843 138.864L346.34 139.011V139.174L347.7 139.588L347.567 138.538C349.017 138.584 350.456 138.797 351.856 139.174C353.157 139.677 354.651 139.81 355.434 141.185C355.863 140.579 356.248 140.638 357.8 141.614C357.298 142.028 356.469 142.058 356.322 142.841L354.71 142.339C354.429 142.25 354.163 142.132 353.882 142.028C353.669 141.965 353.461 141.886 353.261 141.791C353.133 141.681 353.023 141.551 352.935 141.407C352.877 141.572 352.828 141.74 352.787 141.91C352.787 142.072 352.787 142.058 352.787 142.161L351.309 142.679C351.575 142.845 351.788 143.083 351.925 143.366C352.061 143.648 352.114 143.964 352.077 144.276C350.066 143.906 348.721 145.045 347.257 145.991C347.057 145.745 346.768 145.587 346.453 145.551C346.138 145.515 345.821 145.604 345.571 145.799V145.799C345.36 145.9 345.123 145.936 344.891 145.902C343.796 145.814 343.634 146.834 342.924 147.381L343.604 147.514C343.604 147.958 343.708 148.342 343.767 148.771C343.028 148.771 342.791 149.17 343.22 149.836C342.835 150.235 341.741 149.925 342.155 151.004C340.928 150.827 341.342 152.365 340.366 152.616C340.07 150.901 339.109 149.23 340.366 147.736C341.951 146.869 343.328 145.668 344.403 144.217L344.27 144.01C344.092 144.01 343.782 144.128 343.782 144.172C343.782 144.749 343.382 144.808 342.998 144.971C342.613 145.133 342.111 145.991 341.889 144.779C341.392 144.722 340.889 144.768 340.41 144.912C340.019 145.106 339.687 145.402 339.449 145.769C339.316 145.917 339.36 146.213 339.301 146.568L337.408 146.819L337.778 146.257C336.9 146.412 336.006 146.461 335.116 146.405C333.223 146.006 332.159 147.219 331.005 148.209L329.349 149.688C329.583 149.984 329.846 150.256 330.133 150.501C330.348 150.576 330.583 150.576 330.798 150.501C331.079 150.501 331.434 150.102 331.567 150.191C331.7 150.28 332.321 150.782 332.277 151.019C331.981 152.305 332.188 153.74 331.375 154.908C330.562 156.076 329.896 157.052 329.172 158.102C329.078 158.236 328.96 158.351 328.822 158.439C328.685 158.527 328.532 158.587 328.371 158.616C328.21 158.645 328.045 158.642 327.886 158.607C327.727 158.572 327.575 158.506 327.442 158.413C327.072 158.96 326.332 159.152 326.273 160.054C326.273 160.424 325.534 160.749 325.416 161.104C325.726 161.862 325.992 162.637 326.214 163.426C326.48 164.683 325.297 164.609 324.499 165.097C324.499 164.298 324.647 163.618 324.661 162.849C324.661 162.671 324.454 162.302 324.366 162.317C323.375 162.42 323.878 161.843 323.952 161.459C323.995 161.348 324.044 161.239 324.1 161.134C323.844 160.937 323.523 160.847 323.203 160.883C322.883 160.919 322.589 161.078 322.384 161.326L322.251 161.518L322.014 161.355L322.369 160.098C321.615 159.936 321.393 160.69 320.891 161C320.772 161.089 320.698 161.252 320.565 161.326C320.409 161.395 320.245 161.445 320.077 161.474L320.432 162.036C320.551 162.198 320.728 162.464 320.772 162.509H322.828L320.965 164.106C321.453 165.304 321.852 166.265 322.266 167.256L321.63 167.818L322.547 167.965C322.148 168.749 321.748 169.548 321.334 170.331C321.081 170.952 320.759 171.543 320.373 172.091C319.87 172.668 319.515 173.422 318.539 173.57C317.898 173.704 317.286 173.954 316.735 174.309C316.469 174.457 316.292 174.782 315.996 175.093L315.892 174.339C315.451 174.285 315.006 174.394 314.639 174.644C314.271 174.894 314.008 175.269 313.896 175.699C313.63 176.971 314.636 177.71 315.375 178.465L316.499 178.184L316.632 178.376C316.407 178.643 316.2 178.925 316.011 179.219C315.878 179.363 315.791 179.543 315.759 179.736C315.833 180.89 315.922 181.954 314.532 182.531C314.148 182.679 313.97 183.359 313.526 183.744V182.901L311.205 180.18C311.1 180.299 311.015 180.433 310.953 180.579C310.929 180.904 310.875 181.226 310.791 181.54C310.229 182.694 310.998 183.67 311.205 184.69C311.294 185.119 311.959 185.385 312.21 185.814C312.45 186.279 312.62 186.778 312.713 187.293C312.885 187.909 312.969 188.546 312.965 189.185C312.467 188.833 312.023 188.409 311.648 187.929C311.412 187.35 311.248 186.744 311.16 186.124C311.106 185.749 310.97 185.391 310.761 185.075C310.427 184.668 310.2 184.185 310.102 183.668C310.004 183.151 310.037 182.618 310.199 182.117C310.465 180.49 309.711 179.056 309.489 177.429C308.942 177.888 308.794 178.686 307.892 178.213C308.454 176.956 307.73 175.965 307.02 174.945C306.81 174.536 306.666 174.097 306.591 173.644C305.955 173.777 305.334 173.88 304.757 174.028C304.536 174.028 304.21 174.235 304.181 174.383C303.959 175.581 302.805 176.054 302.229 176.956C301.844 177.548 301.208 177.977 300.75 178.553C300.586 178.924 300.529 179.334 300.587 179.736C300.685 181.35 300.155 182.94 299.109 184.173C298.384 182.511 297.824 180.783 297.438 179.012C296.994 177.267 296.757 175.463 296.462 173.925L295.841 174.694L294.584 173.629L295.116 173.422C294.48 172.727 293.889 171.943 293.223 171.293C292.203 171.293 291.064 171.293 289.926 171.293C288.787 171.293 288.728 171.1 288.343 170.124C288.1 170.252 287.834 170.33 287.56 170.353C287.287 170.377 287.011 170.346 286.75 170.262C286.488 170.178 286.246 170.043 286.037 169.864C285.828 169.686 285.657 169.468 285.534 169.222C285.485 169.133 285.446 169.039 285.415 168.941C285.415 168.793 285.297 168.646 285.223 168.498C284.691 167.477 284.528 167.448 283.744 168.291L285.149 171.248L285.46 170.479C285.563 170.908 285.608 171.115 285.637 171.278C285.667 171.44 285.741 171.855 285.785 172.15C286.258 172.062 286.82 172.49 287.175 171.781C287.446 171.356 287.753 170.955 288.092 170.583C288.092 170.947 288.137 171.309 288.225 171.662C288.303 171.944 288.489 172.183 288.743 172.328C290 172.964 290.221 173.806 289.245 174.856C289.085 175.05 288.951 175.264 288.846 175.492C288.728 175.684 288.624 175.906 288.476 176.113C287.964 176.736 287.323 177.24 286.598 177.592C285.8 178.065 285.12 178.76 284.365 179.263C283.625 179.716 282.86 180.125 282.073 180.49C281.645 180.712 281.438 180.49 281.349 180.062C281.303 178.691 280.954 177.348 280.328 176.128C280.032 175.74 279.765 175.329 279.53 174.901C279.373 174.51 279.239 174.11 279.131 173.703C278.924 173.156 278.702 172.623 278.495 172.091C278.288 171.559 277.903 170.775 277.593 170.124C277.401 169.74 277.164 169.37 277.001 169.089L275.803 169.444L275.73 169.208L276.365 168.734L275.108 167.433C275.256 167.33 275.552 167.004 275.863 166.989C276.661 166.989 276.898 166.501 277.046 165.866L277.77 162.657L276.425 163.293C276.425 163.293 276.425 163.293 276.336 163.293C275.803 163.159 275.02 162.745 274.783 162.952C274.044 163.603 273.674 162.849 273.304 162.657C272.935 162.464 272.772 161.932 272.535 161.577L272.639 160.098C272.107 159.788 272.121 159.803 271.5 160.365C271.367 160.483 271.027 160.365 270.672 160.365C270.91 160.695 271.118 161.047 271.293 161.415C271.411 161.648 271.442 161.915 271.382 162.169C271.205 162.567 270.992 162.948 270.746 163.307C270.184 162.05 269.046 161.045 269.031 159.433C269.031 159.078 268.528 158.634 268.144 158.398C267.522 158.028 266.857 157.777 266.665 156.919C266.665 156.919 266.369 156.919 266.28 156.756C266.166 156.599 266.076 156.424 266.014 156.239C265.216 156.446 265.097 156.83 265.674 157.54C265.925 157.821 266.059 158.176 266.31 158.487C266.447 158.69 266.636 158.853 266.857 158.96C267.611 159.122 267.966 159.817 268.543 160.217C268.543 160.217 268.543 160.365 268.617 160.527L267.626 160.098L267.907 161.104L267.271 161.932C267.641 160.542 266.65 160.084 265.792 159.448C265.29 159.011 264.843 158.514 264.461 157.969C264.21 157.688 263.988 157.392 263.766 157.097C263.437 157.286 263.12 157.499 262.82 157.732C262.669 157.909 262.461 158.028 262.231 158.068C262.002 158.109 261.766 158.068 261.563 157.954C261.09 157.762 260.572 157.718 260.617 158.575C260.617 158.856 260.247 159.167 260.025 159.433C259.647 159.801 259.292 160.191 258.961 160.601C258.842 160.764 258.961 161.089 258.961 161.533C258.546 162.686 257.26 162.878 256.003 163.189L255.485 162.509L254.613 162.612C253.741 161.134 254.953 159.655 254.229 158.176C255.485 157.392 256.846 158.013 258.177 157.91C258.266 157.17 258.813 156.431 258.177 155.677C257.649 155.167 257.155 154.624 256.698 154.05H258.28L258.192 153.311C258.506 153.458 258.865 153.476 259.192 153.359C259.519 153.243 259.786 153.002 259.936 152.69C259.936 152.69 259.936 152.69 259.936 152.69C259.936 152.69 260.247 152.438 260.395 152.291L261.785 150.915L263.574 150.191C263.589 149.94 263.589 149.688 263.574 149.437C263.057 148.446 263.042 148.461 264.254 147.795Z" fill="#C3C3C3"/>
<path opacity="0.51" d="M194.634 157.925H195.566C195.23 157.238 194.642 156.708 193.925 156.446C192.846 155.899 192.028 154.947 191.647 153.799C191.529 153.518 191.085 153.37 190.834 153.178L190.627 153.755C190.302 153.015 189.37 152.72 190.095 151.832C190.095 151.832 189.621 151.078 189.459 151.108C189.108 151.135 188.754 151.093 188.419 150.984C188.084 150.875 187.774 150.701 187.507 150.472C187.107 150.279 186.685 150.135 186.25 150.043L183.204 149.496L183.307 149.954L181.193 150.501L181.355 149.392L180.098 150.427C180.335 150.915 178.324 152.616 177.067 152.956L177.496 153.355V153.607C176.52 152.749 175.721 153.607 174.775 153.607L176.12 152.897C176.633 152.681 177.128 152.424 177.599 152.128C178.011 151.748 178.383 151.327 178.708 150.871H176.283L176.106 149.88C174.79 150.827 174.849 149.259 174.228 148.993C174.568 147.662 175.795 147.84 176.742 147.514L176.579 146.79C175.1 146.923 174.834 147.352 173.281 146.154C173.621 146.05 173.917 145.962 174.213 145.843C174.509 145.725 174.79 145.548 175.071 145.415C175.588 146.036 176.002 146.08 176.742 145.562L173.651 144.335C174.109 144.158 174.39 144.069 174.657 143.936C174.923 143.803 175.337 143.551 175.706 143.418C176.401 143.122 177.096 142.856 177.806 142.62C178.961 142.351 180.168 142.402 181.296 142.768C182.221 142.928 183.154 143.036 184.091 143.093C185.535 143.178 186.962 143.451 188.335 143.906C188.65 143.98 188.972 144.025 189.296 144.039C189.296 142.93 190.139 143.817 190.523 143.507C191.013 143.248 191.571 143.145 192.121 143.211L190.39 143.906L190.509 144.143L193.037 142.975L193.925 143.758L194.546 143.256L194.886 143.817C195.285 143.137 195.847 143.359 196.439 143.507C197.03 143.655 198.05 143.803 198.864 143.951C199.13 143.951 199.366 144.098 199.736 144.202L199.219 144.601V144.808C199.856 144.72 200.498 144.675 201.141 144.675C201.709 144.778 202.268 144.926 202.812 145.119L202.723 144.483C203.359 144.483 203.906 144.483 204.453 144.483C205.503 144.483 206.524 145.015 207.603 144.35C207.825 144.232 208.357 144.646 208.875 144.853L209.806 144.098L208.402 143.034C208.283 142.487 208.549 142.028 209.274 141.969C209.999 141.91 210.605 142.827 210.531 143.448L211.433 143.596L211.33 144.512L212.113 143.596L212.941 145.355L214.287 143.477L215.766 143.729V145.119L215.943 145.341L214.583 145.636L215.026 146.331L213.548 145.474C213.725 146.228 213.355 146.376 212.882 146.331C212.432 146.217 211.971 146.152 211.507 146.139L213.355 146.686L211.995 147.307C211.794 147.394 211.609 147.514 211.448 147.662C210.753 148.535 209.348 148.86 209.422 150.294C209.429 150.419 209.463 150.54 209.522 150.65C209.581 150.76 209.663 150.855 209.762 150.93C210.457 151.093 210.501 151.566 210.457 152.187C211.359 151.699 211.936 152.187 212.764 152.601C213.652 153.01 214.566 153.361 215.5 153.651C215.5 154.228 215.5 155.13 216.298 155.647C216.461 155.751 216.757 155.958 216.801 155.914C216.845 155.869 217.318 155.426 217.318 155.189C217.248 154.686 217.13 154.191 216.964 153.71C217.437 153.296 218.22 152.956 218.309 152.453C218.398 151.951 217.866 151.33 217.555 150.679C218.324 150.132 217.555 149.289 217.644 148.446C219.113 148.24 220.604 148.617 221.799 149.496C221.735 149.628 221.698 149.773 221.691 149.92C221.684 150.067 221.707 150.214 221.758 150.352C221.809 150.49 221.888 150.616 221.989 150.723C222.09 150.83 222.211 150.916 222.346 150.975C222.434 151.02 222.529 151.05 222.627 151.063C223.633 151.315 223.736 150.28 224.106 149.688C224.535 150.324 224.993 150.842 225.363 151.433C225.57 151.788 225.481 152.379 225.747 152.631C226.302 153.052 226.896 153.419 227.522 153.725L227.049 154.036C227.416 154.065 227.776 154.155 228.113 154.302C228.234 154.388 228.336 154.498 228.412 154.625C228.489 154.753 228.538 154.894 228.557 155.041C228.537 155.165 228.49 155.282 228.418 155.384C228.346 155.487 228.252 155.572 228.143 155.633C227.008 156.434 225.621 156.797 224.239 156.653C223.248 156.431 222.583 157.318 221.903 157.969C222.302 157.775 222.712 157.602 223.13 157.452C223.449 157.376 223.779 157.351 224.106 157.378C224.18 157.378 224.313 157.806 224.269 157.866C223.633 158.442 223.855 158.916 224.446 159.344C225.038 159.773 225.481 159.847 226.014 159.078C226.041 159.022 226.082 158.975 226.135 158.941C226.187 158.907 226.247 158.888 226.309 158.886L226.117 159.566L226.472 159.359L226.605 159.581L223.736 161.06H223.529L224.121 159.803C223.189 160.212 222.285 160.681 221.415 161.208C221.193 161.355 221.296 161.977 221.252 162.376L221.489 162.494C221.221 162.569 220.95 162.628 220.675 162.672C219.98 162.672 219.581 162.864 219.492 163.692C219.492 164.15 219.034 164.579 218.723 165.171L218.413 163.973C218.363 164.465 218.363 164.96 218.413 165.452C218.738 166.93 218.664 167.123 217.407 167.832C216.668 168.261 215.795 169.563 215.928 170.124C216.062 170.686 216.387 171.603 216.564 172.431C216.591 172.857 216.567 173.284 216.49 173.703H216.091L214.834 170.405L214.124 170.716C213.503 169.651 212.646 170.331 211.818 170.287L212.158 171.056C211.433 170.908 210.856 170.819 210.265 170.672C209.673 170.524 209.511 170.539 209.244 170.997C209.111 171.219 208.816 171.337 208.609 171.514C208.402 171.692 208.135 171.869 208.121 172.062C208.121 173.452 208.121 174.842 208.121 176.232C208.165 176.69 208.339 177.126 208.623 177.489C208.904 177.829 209.407 178.272 209.747 178.228C210.368 178.11 211.226 178.228 211.433 177.237C211.64 176.246 211.995 175.966 213.237 176.158L212.365 179.943C212.768 179.973 213.174 179.973 213.577 179.943C214.642 179.81 215.056 180.283 214.923 181.319C214.79 182.354 214.524 183.936 216.002 184.72C217.2 184.128 217.185 184.143 218.161 185.149C218.427 185.362 218.714 185.545 219.019 185.696C219.3 184.025 220.705 183.596 221.977 182.842C221.873 183.537 221.459 184.173 221.873 184.823L222.509 183.152L224.269 183.995C224.864 184.189 225.506 184.189 226.102 183.995C226.694 183.877 227.004 184.513 227.433 184.808C227.581 184.937 227.715 185.081 227.832 185.237C228.077 185.534 228.349 185.806 228.646 186.051C229.012 186.363 229.448 186.581 229.917 186.686C231.47 186.775 232.224 187.189 232.594 188.698C232.733 189.309 233.063 189.861 233.536 190.273C234.009 190.685 234.601 190.936 235.226 190.99C235.773 191.123 236.025 191.285 235.921 191.803C237.178 191.803 238.45 191.552 239.352 192.764C239.441 192.868 239.574 193.001 239.677 193.001C239.862 193.008 240.044 193.053 240.212 193.132C240.38 193.21 240.53 193.322 240.654 193.46C240.778 193.598 240.873 193.759 240.934 193.934C240.995 194.109 241.02 194.295 241.008 194.48V194.583C241.008 195.204 240.417 195.884 240.032 196.461C239.648 197.038 239.219 197.481 238.82 197.94C238.797 198.047 238.797 198.158 238.82 198.265C238.757 199.256 238.644 200.243 238.479 201.223C238.249 201.93 237.932 202.606 237.533 203.234C237.418 203.381 237.256 203.485 237.075 203.529C236.306 203.825 235.492 204.047 234.753 204.402C234.453 204.54 234.202 204.764 234.031 205.046C233.859 205.328 233.776 205.655 233.792 205.984C233.628 206.71 233.349 207.404 232.964 208.04C232.86 208.291 232.727 208.528 232.55 208.883L232.417 208.084C231.603 209.696 230.938 211.485 228.675 209.977C228.956 210.494 229.178 210.835 229.355 211.189C229.486 211.414 229.524 211.68 229.46 211.932C229.397 212.183 229.237 212.4 229.015 212.535C228.902 212.592 228.783 212.637 228.66 212.668C228.069 212.831 227.433 212.905 226.797 213.023C226.797 214.176 226.62 214.384 225.319 213.984C225.954 215.463 225.141 216.365 223.943 217.045C224.108 217.222 224.291 217.381 224.49 217.518C225.126 217.873 225.126 217.977 224.49 218.48C223.855 218.982 223.5 219.219 223.411 219.677C223.337 220.28 223.484 220.89 223.825 221.393C224.076 221.777 224.668 221.94 225.2 222.265C224.378 222.462 223.53 222.531 222.686 222.472C221.829 222.236 221.052 221.771 220.439 221.127C220.093 220.571 219.904 219.932 219.891 219.278C219.773 218.628 219.684 217.962 220.513 217.607H219.891L220.601 215.803H220.764L220.897 216.542H221.001L221.326 214.65C220.557 214.561 220.557 214.103 220.823 213.555C220.823 213.452 221.015 213.334 220.986 213.289C220.453 212.106 221.518 211.293 221.666 210.332C221.814 209.371 221.873 208.365 222.006 207.374C222.184 206.117 222.405 204.86 222.553 203.559C222.687 202.831 222.687 202.084 222.553 201.356C222.465 201.077 222.317 200.82 222.121 200.603C221.924 200.386 221.683 200.214 221.415 200.099C219.788 199.522 219.344 198.043 218.708 196.757C218.352 195.674 217.789 194.67 217.052 193.799C216.883 193.628 216.789 193.397 216.789 193.156C216.789 192.915 216.883 192.684 217.052 192.513C217.239 192.324 217.398 192.11 217.525 191.877C216.934 191.685 216.771 191.285 217.052 190.783C217.417 190.1 217.843 189.452 218.324 188.845C218.491 188.696 218.622 188.511 218.707 188.304C218.792 188.096 218.829 187.872 218.815 187.649C218.8 187.425 218.735 187.208 218.625 187.013C218.514 186.818 218.361 186.651 218.176 186.524C217.881 186.176 217.646 185.781 217.481 185.356L217.171 184.764H216.919L216.461 185.932L216.002 185.592C215.855 185.463 215.684 185.362 215.5 185.296C215.145 185.208 214.79 185.208 214.805 184.705C213.976 184.483 213.903 183.744 213.622 183.108C213.474 182.757 213.242 182.449 212.944 182.211C212.647 181.974 212.296 181.814 211.921 181.747C211.23 181.546 210.635 181.099 210.25 180.491C209.895 180.076 209.555 179.796 208.993 180.21C208.863 180.268 208.722 180.299 208.579 180.299C208.436 180.299 208.295 180.268 208.165 180.21C206.952 179.515 205.755 178.731 204.601 178.021C204.472 177.924 204.367 177.799 204.293 177.656C204.219 177.512 204.177 177.354 204.172 177.193C204.239 176.803 204.218 176.402 204.111 176.021C204.003 175.64 203.812 175.287 203.551 174.99C202.96 174.147 202.294 173.333 201.777 172.476C201.259 171.618 200.963 170.893 200.505 170.139C200.342 169.873 199.987 169.725 199.707 169.503L199.47 169.681C199.721 170.213 199.988 170.746 200.254 171.293L201.732 174.073C201.836 174.28 201.969 174.457 202.058 174.664C202.146 174.871 202.25 175.182 202.354 175.448L202.013 175.596C201.692 174.845 201.317 174.118 200.89 173.422C200.579 173.063 200.215 172.753 199.81 172.505C199.81 172.017 199.973 171.633 199.81 171.529C199.138 170.687 198.636 169.723 198.331 168.69C198.213 168.468 198.021 168.158 197.799 168.099C196.542 167.788 196.32 166.62 195.832 165.718C195.568 165.343 195.355 164.935 195.196 164.505C194.882 163.426 194.801 162.291 194.96 161.178C194.95 160.086 194.842 158.997 194.634 157.925V157.925Z" fill="#C3C3C3"/>
<path opacity="0.51" d="M269.104 210.317C268.83 210.189 268.606 209.976 268.464 209.709C268.323 209.442 268.272 209.136 268.32 208.838C268.289 208.139 267.993 207.478 267.492 206.99C266.799 206.192 266.429 205.163 266.457 204.106C266.343 203.097 265.971 202.135 265.377 201.311C265.072 200.695 264.94 200.007 264.998 199.322C265.055 198.636 265.299 197.979 265.703 197.422C265.969 196.875 266.205 196.491 265.806 195.944C265.715 195.803 265.674 195.637 265.688 195.47C265.733 194.863 265.653 194.253 265.452 193.678C265.251 193.103 264.933 192.575 264.52 192.128C264.101 191.712 263.816 191.179 263.703 190.599C263.59 190.019 263.653 189.419 263.884 188.875C263.961 188.467 263.882 188.045 263.662 187.692C263.553 187.577 263.419 187.49 263.27 187.436C263.121 187.382 262.961 187.363 262.804 187.382C262.183 187.382 261.784 187.382 261.547 186.746C261.311 186.11 260.542 186.273 259.995 186.391C259.447 186.509 258.915 186.79 258.368 186.968C258.111 187.03 257.848 187.069 257.584 187.086C256.889 187.088 256.196 187.157 255.514 187.293C255.307 187.38 255.08 187.409 254.858 187.375C254.636 187.341 254.428 187.246 254.257 187.101C253.59 186.613 252.957 186.079 252.364 185.504C251.823 184.845 251.328 184.148 250.886 183.419C250.782 183.285 250.59 183.197 250.471 183.049C250.353 182.901 250.161 182.709 250.161 182.531C250.052 181.683 250.123 180.822 250.368 180.003C250.612 179.385 250.612 178.698 250.368 178.08C249.836 177.267 250.368 176.779 250.649 176.202C251.048 175.389 251.521 174.62 251.995 173.851C252.115 173.68 252.294 173.559 252.497 173.511C253.296 173.26 253.843 172.875 253.828 171.899C253.834 171.591 253.923 171.29 254.087 171.03C254.252 170.769 254.484 170.558 254.76 170.42C255.241 170.04 255.665 169.592 256.017 169.089C256.919 169.814 257.91 169.459 258.886 169.089C259.512 168.836 260.168 168.662 260.838 168.572C261.78 168.456 262.728 168.392 263.677 168.38C264.045 168.392 264.412 168.442 264.771 168.528C264.579 169.089 264.387 169.622 264.179 170.258C264.623 171.086 265.658 170.657 266.472 170.997C266.56 170.997 266.753 170.997 266.753 170.997C266.945 171.958 267.921 171.722 268.483 172.136C269.045 172.55 269.222 172.224 269.266 171.677C269.274 171.434 269.375 171.203 269.549 171.032C269.722 170.861 269.955 170.764 270.198 170.76C270.363 170.773 270.524 170.818 270.671 170.894C271.491 171.235 272.33 171.526 273.185 171.766C273.625 171.84 274.076 171.81 274.501 171.677C275.063 171.515 275.477 171.455 275.714 172.18C276.042 173.158 276.427 174.116 276.867 175.049C277.222 175.803 277.917 176.528 277.991 177.237C278.297 178.35 278.734 179.422 279.292 180.431C279.425 180.749 279.621 181.036 279.869 181.274C280.313 181.718 280.83 182.088 281.229 182.576C281.437 182.827 281.407 183.271 281.599 183.581C281.667 183.673 281.757 183.747 281.86 183.796C281.963 183.845 282.077 183.868 282.191 183.862C283.27 183.626 284.335 183.33 285.533 183.019C285.505 183.559 285.401 184.092 285.222 184.602C284.487 186.355 283.389 187.933 281.998 189.23C280.884 190.364 279.92 191.636 279.13 193.016C279.041 193.134 279.011 193.43 279.13 193.474C279.706 193.947 279.337 194.568 279.44 195.115C279.544 195.663 279.854 196.047 279.928 196.594C280.1 197.311 280.14 198.052 280.046 198.783C279.943 199.256 279.411 199.685 279.011 200.04C278.39 200.616 277.754 201.134 277.133 201.696C277.03 201.77 277.059 202.036 277.133 202.199C277.207 202.361 277.34 202.775 277.429 203.056C277.551 203.368 277.544 203.716 277.411 204.023C277.279 204.33 277.03 204.573 276.719 204.698V204.698C276.453 204.831 276.202 204.994 276.083 205.053C276.083 205.585 276.172 206.043 275.995 206.31C275.259 207.946 273.934 209.245 272.283 209.947C271.536 210.085 270.78 210.164 270.021 210.184C269.711 210.192 269.403 210.237 269.104 210.317V210.317Z" fill="#C3C3C3"/>
<path opacity="0.51" d="M229.71 144.039L228.823 143.329L230.79 142.324V141.496L229.148 140.875V140.623L230.864 140.86L229.562 140.017C228.764 140.49 228.512 140.298 228.483 139.1H229.045C228.69 138.583 228.394 138.08 228.024 137.621C227.587 136.976 226.957 136.486 226.224 136.22C225.491 135.954 224.692 135.927 223.943 136.143C223.642 136.259 223.319 136.309 222.997 136.291C222.656 136.291 222.05 136.601 222.006 135.788C222.006 135.684 221.37 135.61 220.985 135.536V135.241L222.642 135.152L219.832 134.353C220.033 134.22 220.246 134.106 220.468 134.013C221.281 133.88 222.109 133.806 222.923 133.644C223.411 133.555 224.017 133.54 224.017 132.742H222.834V132.461L225.555 131.751V131.248C225.555 131.248 225.673 131.248 225.717 131.248C226.501 131.529 227.196 130.938 227.891 130.923C228.11 130.913 228.328 130.951 228.53 131.035C228.732 131.12 228.913 131.248 229.059 131.411C229.266 131.588 229.695 130.731 230.257 131.219C230.361 131.307 230.627 131.219 230.878 131.219L230.568 130.671L233.407 131.396V131.145C233.168 131.127 232.934 131.073 232.712 130.982C232.632 130.948 232.56 130.895 232.504 130.828C232.447 130.761 232.407 130.682 232.387 130.597C232.387 130.494 232.608 130.287 232.742 130.272C233.451 130.272 234.22 130.272 234.901 130.124C235.39 130.037 235.883 129.978 236.379 129.947C238.376 129.947 240.372 129.947 242.368 130.109C243.276 130.254 244.167 130.487 245.03 130.804L242.886 131.159V131.499H243.477C243.829 131.482 244.18 131.442 244.527 131.381L244.113 132.061C245.027 131.946 245.932 131.763 246.819 131.514C247.309 131.329 247.833 131.25 248.356 131.283C248.878 131.316 249.388 131.461 249.851 131.706C248.121 132.535 246.257 133.067 245.148 134.664C245.545 134.634 245.944 134.664 246.331 134.753C246.583 134.856 246.701 135.255 246.923 135.596H245.725C245.725 136.084 246.908 136.409 245.962 137.074L246.494 137.636L245.267 137.814L245.828 138.45H243.936C243.566 138.938 243.64 139.322 244.35 139.603C244.501 139.646 244.643 139.718 244.767 139.815C244.89 139.913 244.993 140.033 245.07 140.171C245.147 140.308 245.196 140.459 245.215 140.616C245.233 140.772 245.221 140.93 245.178 141.082V141.082L243.522 140.402L242.96 141.082L245.045 141.289C243.643 142.248 242.039 142.87 240.357 143.108C240.076 143.108 239.736 143.463 239.544 143.729C239.254 144.242 238.818 144.657 238.291 144.92C237.764 145.184 237.17 145.284 236.586 145.207C236.409 145.207 236.01 145.636 236.01 145.843C236.063 146.162 236.016 146.49 235.875 146.781C235.735 147.072 235.508 147.313 235.226 147.47C235.137 147.47 235.093 147.662 235.063 147.781C234.93 148.372 234.753 148.978 234.649 149.585C234.546 150.191 234.205 150.043 233.836 149.88C233.329 149.703 232.834 149.491 232.357 149.244C232.035 149.065 231.765 148.805 231.573 148.49C230.893 147.219 230.257 145.962 229.651 144.705C229.628 144.481 229.648 144.255 229.71 144.039V144.039Z" fill="#C3C3C3"/>
<path opacity="0.51" d="M333.519 198.102C333.801 198.305 334.05 198.549 334.258 198.827C334.492 199.158 334.63 199.547 334.657 199.951C334.657 200.882 335.293 201.223 335.841 201.681C335.945 201.758 336.039 201.847 336.121 201.947C336.323 202.408 336.638 202.81 337.038 203.115C337.67 203.7 338.139 204.439 338.399 205.26C338.61 205.827 338.688 206.436 338.626 207.038C338.565 207.641 338.366 208.221 338.044 208.735C337.442 209.639 336.997 210.639 336.728 211.692C336.041 212.143 335.242 212.393 334.421 212.417L333.992 212.18C333.795 212.304 333.574 212.388 333.344 212.426C333.114 212.464 332.878 212.456 332.651 212.402C332.424 212.349 332.21 212.251 332.022 212.113C331.833 211.976 331.673 211.803 331.552 211.603C331.478 211.488 331.419 211.364 331.375 211.234C331.143 210.819 330.865 210.432 330.547 210.08L330.251 210.287L330.487 209.06L329.364 210.332C329.023 209.755 328.816 209.06 328.358 208.764C327.769 208.434 327.092 208.295 326.421 208.365C325.502 208.442 324.604 208.688 323.774 209.09C323.21 209.51 322.525 209.733 321.822 209.725C321.291 209.734 320.775 209.904 320.343 210.213C320.119 210.371 319.845 210.442 319.573 210.412C319.301 210.382 319.049 210.253 318.864 210.051C318.748 209.861 318.701 209.636 318.731 209.415C318.731 209.06 318.953 208.661 318.879 208.335C318.675 207.628 318.434 206.932 318.155 206.25C318.022 205.895 317.755 205.541 318.155 205.156C318.155 205.156 318.036 204.831 318.007 204.653C318.007 204.077 317.667 203.337 317.933 202.968C318.199 202.598 319.042 202.302 319.619 201.962C320.447 201.489 321.763 201.844 322.132 200.587C322.132 200.394 322.132 200.202 322.251 200.025L322.576 199.581L322.872 199.818C323.288 199.292 323.743 198.797 324.232 198.339C324.794 197.836 325.134 198.147 325.341 199.019C325.632 198.582 325.948 198.162 326.288 197.762C326.624 197.494 326.98 197.252 327.352 197.038C327.482 196.92 327.601 196.792 327.707 196.653L329.866 197.171C329.038 198.443 329.038 198.443 330.295 199.374L331.005 199.862L331.907 200.424L332.292 198.265C332.41 197.6 332.513 196.89 332.617 196.195H332.898L333.519 198.102Z" fill="#C3C3C3"/>
<path opacity="0.51" d="M218.501 142.413C218.59 141.466 217.688 141.496 217.244 141.037C217.023 141.54 216.89 142.073 216.268 141.511C216.15 141.407 215.854 141.511 215.647 141.511C214.627 141.407 213.621 141.304 212.69 141.156C212.483 141.156 212.32 140.934 212.054 140.786L212.956 140.49C212.098 140.328 211.374 140.283 211.743 139.322C211.892 138.889 212.204 138.532 212.614 138.327C213.023 138.122 213.497 138.087 213.932 138.228C213.755 138.612 213.414 139.026 213.444 139.381C213.474 139.736 213.873 140.135 214.139 140.475C213.873 138.731 214.006 138.42 215.263 138.257C215.884 138.169 216.194 138.538 216.254 139.618C216.768 139.313 217.362 139.17 217.959 139.21C218.556 139.25 219.126 139.469 219.596 139.84C219.856 139.962 220.137 140.032 220.424 140.047H220.675C221.243 140.301 221.792 140.598 222.317 140.934C222.7 141.293 223.047 141.689 223.352 142.117L222.612 142.25L222.509 142.442L225.836 144.232L224.579 145.829L222.923 144.35L222.597 145.134C223.233 145.71 224.387 146.139 224.076 147.588L223.13 147.5L223.544 148.476C222.376 147.988 221.222 147.958 220.483 146.908C220.267 146.625 219.971 146.415 219.633 146.304C219.295 146.193 218.931 146.187 218.59 146.287C218.273 146.29 217.959 146.24 217.658 146.139C217.658 145.873 217.747 145.622 217.821 145.37C217.849 145.207 217.909 145.051 217.999 144.912C218.133 144.708 218.316 144.54 218.531 144.424C218.62 144.424 218.827 144.601 218.975 144.705L218.427 145.415L219.625 145.281V145.074L219.226 144.941C219.418 144.305 220.601 144.261 220.187 143.344C220.064 143.013 219.826 142.737 219.517 142.566C219.207 142.395 218.847 142.341 218.501 142.413Z" fill="#C3C3C3"/>
<path opacity="0.51" d="M213.178 132.091C212.409 132.534 211.699 131.78 210.856 131.159C212.029 130.952 213.215 130.833 214.405 130.804C215.479 130.774 216.541 130.58 217.555 130.228C218.345 130.117 219.146 130.117 219.936 130.228C221.415 130.228 222.893 130.316 224.372 130.42C224.831 130.516 225.278 130.665 225.703 130.863C225.393 131.026 225.126 131.189 224.86 131.307C223.603 131.854 222.317 132.401 221.001 132.919C220.732 133.04 220.449 133.125 220.158 133.17C219.81 133.193 219.482 133.337 219.23 133.578C218.979 133.818 218.82 134.14 218.783 134.486L216.964 135.241L217.747 135.699C217.067 135.802 216.535 136.424 215.899 135.699C215.899 135.699 215.588 135.699 215.426 135.699C214.17 135.946 212.873 135.895 211.64 135.551L212.897 135.181L212.749 134.767L213.888 134.856L213.962 134.664L212.971 134.191C213.563 133.274 214.45 134.058 215.13 133.865L213.356 132.801L213.577 132.623C214.642 133.037 215.618 132.401 216.727 132.387C215.648 131.677 214.45 132.623 213.178 132.091Z" fill="#C3C3C3"/>
<path opacity="0.51" d="M198.198 141.23L200.49 141.082V140.934C200.017 140.934 199.544 140.83 199.012 140.816C198.479 140.801 198.08 140.816 197.622 140.816V140.549L198.568 140.195L197.267 139.869C197.71 138.819 198.642 138.686 199.677 138.538V139.1H199.943C200.372 138.686 200.742 138.834 201.141 139.174C201.54 139.514 201.703 138.553 202.102 139.056C202.327 139.37 202.602 139.644 202.915 139.869L202.62 138.553H203.817C204.006 139.216 204.29 139.849 204.66 140.431C205.045 140.904 205.74 141.111 206.243 141.599L205.474 141.673L205.814 142.294C205.368 142.368 204.914 142.368 204.468 142.294C203.51 142.074 202.506 142.178 201.614 142.59C201.097 142.738 200.357 143.019 199.958 142.176C199.958 142.058 199.618 142.058 199.455 142.013L198.124 141.629L198.198 141.23Z" fill="#C3C3C3"/>
<path opacity="0.51" d="M335.692 193.696L335.056 194.139L336.949 196.121C336.529 196.11 336.117 195.999 335.749 195.795C335.381 195.592 335.067 195.303 334.834 194.953C334.75 194.755 334.591 194.598 334.392 194.515C334.193 194.432 333.97 194.43 333.77 194.509C333.659 194.557 333.559 194.628 333.478 194.717C333.396 194.806 333.335 194.912 333.297 195.027C333.233 195.199 333.104 195.339 332.938 195.416C332.772 195.494 332.582 195.503 332.409 195.441C332.318 195.406 332.233 195.356 332.158 195.293C331.655 194.701 331.108 194.716 330.28 194.982L330.96 194.036C330.904 193.73 330.759 193.448 330.543 193.225C330.327 193.001 330.051 192.846 329.748 192.779C329.149 192.639 328.56 192.456 327.988 192.232C327.81 192.158 327.707 191.877 327.544 191.67L328.165 191.374L326.583 190.62C326.915 190.488 327.256 190.379 327.603 190.295C327.694 190.264 327.789 190.252 327.884 190.259C327.979 190.266 328.072 190.291 328.157 190.334C328.242 190.376 328.318 190.435 328.38 190.507C328.443 190.579 328.49 190.663 328.52 190.753C328.52 190.753 328.52 190.842 328.52 190.871C328.624 191.254 328.752 191.629 328.905 191.995H329.171C329.279 191.805 329.413 191.63 329.57 191.478C330.058 191.049 330.472 190.664 331.241 191.256C332.01 191.847 332.72 191.685 333.459 192.054C334.244 192.544 334.991 193.093 335.692 193.696V193.696Z" fill="#C3C3C3"/>
<path opacity="0.51" d="M315.611 188.816L316.395 189.082L319.737 185.932L320.727 186.923C319.751 187.855 319.707 188.49 320.624 189.452C320.166 189.784 319.807 190.235 319.585 190.756C319.364 191.277 319.288 191.848 319.367 192.409L316.202 191.788C316.069 190.768 315.212 189.954 315.611 188.816Z" fill="#C3C3C3"/>
<path opacity="0.51" d="M281.866 199.374C283.522 199.448 283.61 197.895 284.527 197.26C284.785 197.492 284.953 197.807 285.001 198.15C285.05 198.493 284.976 198.843 284.794 199.138C284.74 199.259 284.71 199.389 284.705 199.522C284.261 201.104 283.847 202.672 283.359 204.254C283.321 204.369 283.26 204.475 283.18 204.566C283.101 204.658 283.004 204.732 282.895 204.786C282.787 204.84 282.668 204.871 282.548 204.879C282.427 204.887 282.305 204.87 282.191 204.831C282.072 204.787 281.962 204.722 281.866 204.638C281.627 204.321 281.475 203.946 281.426 203.552C281.376 203.158 281.431 202.757 281.585 202.391C281.757 201.917 281.847 201.416 281.851 200.912C281.895 200.409 281.866 199.921 281.866 199.374Z" fill="#C3C3C3"/>
<path opacity="0.51" d="M257.185 152.32L256.505 152.113V151.122C256.505 151.004 256.683 150.812 256.712 150.827C257.126 151.004 257.333 150.708 257.289 150.427C257.244 150.146 256.83 150.013 256.579 149.806C256.328 149.599 256.416 149.806 256.283 149.806L256.387 149.289C255.662 148.609 255.381 148.106 255.573 147.81C255.988 147.219 256.904 146.864 257.304 147.115C257.703 147.366 257.925 147.854 257.481 148.712L259.27 151.182C259.435 151.207 259.589 151.279 259.714 151.389C259.714 151.477 259.581 151.773 259.507 151.965L259.241 152.734L255.958 153.252L257.185 152.32Z" fill="#C3C3C3"/>
<path opacity="0.51" d="M313.822 193.385L312.89 193.311C312.18 192.291 311.411 191.123 310.568 189.984C309.726 188.845 309.09 187.825 308.173 186.642C309.873 186.834 310.524 188.121 311.589 188.949C312.305 189.529 312.89 190.255 313.304 191.078C313.437 191.285 313.822 191.345 314.043 191.463L313.807 193.415L313.822 193.385Z" fill="#C3C3C3"/>
<path opacity="0.51" d="M288.831 138.257C288.241 138.353 287.637 138.321 287.06 138.163C286.484 138.004 285.948 137.724 285.489 137.34C286.191 136.759 286.849 136.127 287.456 135.448C288.159 134.75 289.075 134.307 290.059 134.191C291.066 133.996 292.083 133.853 293.105 133.762C293.563 133.658 294.022 133.525 294.48 133.377L294.613 133.688C294.399 133.866 294.153 134.002 293.889 134.087C292.935 134.209 291.991 134.397 291.064 134.649C289.843 135.081 288.757 135.825 287.914 136.808C287.796 136.956 287.914 137.429 288.047 137.621C288.274 137.873 288.538 138.088 288.831 138.257Z" fill="#C3C3C3"/>
<path opacity="0.51" d="M245.296 146.686L244.128 146.346L245.178 145.799H244.01L243.892 145.651L244.986 145.015L244.897 144.749L245.518 145.562L248.047 144.927V144.66C248.49 144.986 248.888 145.368 249.23 145.799C249.585 146.435 248.86 146.612 248.535 146.879C248.092 147.198 247.589 147.424 247.056 147.544C246.735 147.618 246.401 147.618 246.08 147.544C245.579 147.424 245.085 147.276 244.601 147.1L245.296 146.686Z" fill="#C3C3C3"/>
<path opacity="0.51" d="M328.979 164.579L326.968 165.067C327.574 164.076 327.899 163.928 329.408 163.928C329.526 163.707 329.674 163.485 329.777 163.248C329.846 163.104 329.905 162.956 329.955 162.805C330.28 162.805 330.665 162.805 330.709 162.805C331.005 162.183 331.241 161.548 331.478 160.912C331.641 160.512 331.478 159.891 332.247 159.921C332.463 160.231 332.579 160.6 332.579 160.978C332.579 161.356 332.463 161.725 332.247 162.036C332.01 162.527 331.922 163.077 331.996 163.618C332.084 164.49 331.315 164.49 330.946 164.594C330.265 164.771 329.689 164.949 329.467 165.732H329.215L328.979 164.579Z" fill="#C3C3C3"/>
<path opacity="0.51" d="M194.516 137.474C196.025 137.438 197.527 137.673 198.952 138.169L196.897 139.425C196.291 139.81 195.847 140.18 195.418 140.475L193.939 139.544C194.206 138.997 195.034 138.538 194.516 137.474Z" fill="#C3C3C3"/>
<path opacity="0.51" d="M209.777 133.821L210.221 133.437L208.446 133.096C208.786 132.194 209.2 131.692 210.058 131.84C210.278 131.896 210.491 131.976 210.694 132.076C210.933 132.179 211.188 132.239 211.448 132.254C211.803 132.609 212.084 133.126 212.646 132.653L213.415 133.274C212.528 134.501 211.433 134.679 209.777 133.821Z" fill="#C3C3C3"/>
<path opacity="0.51" d="M264.624 131.499L267.286 131.721L266.975 131.145L271.411 132.934V133.23H269.933C269.829 133.008 269.8 132.756 269.667 132.668C269.58 132.623 269.483 132.6 269.386 132.6C269.288 132.6 269.192 132.623 269.105 132.668C268.631 132.978 268.188 133.363 267.626 133.791L266.354 133.466L266.901 133.185H266.103V133.037L267.123 132.682V132.475C266.697 132.608 266.253 132.668 265.807 132.653C265.382 132.456 264.993 132.191 264.654 131.869L264.624 131.499Z" fill="#C3C3C3"/>
<path opacity="0.51" d="M210.368 135.817L210.989 135.655V136.084C212.823 137.355 214.849 136.084 216.771 136.719C216.667 137.027 216.445 137.281 216.154 137.425C215.863 137.569 215.526 137.592 215.219 137.488H215.085C214.83 137.459 214.572 137.459 214.316 137.488C213.191 137.508 212.066 137.469 210.945 137.37C210.767 137.37 210.56 137 210.457 136.749C210.391 136.443 210.361 136.13 210.368 135.817V135.817Z" fill="#C3C3C3"/>
<path opacity="0.51" d="M198.863 136.542H198.612H198.39C198.316 136.542 198.39 136.424 198.39 136.394C199.203 135.359 200.076 135.98 200.919 136.276C201.288 136.409 201.643 136.542 202.176 136.764L201.732 135.758L202.249 135.403C202.338 135.403 202.412 135.507 202.442 135.566C202.619 136.01 202.752 136.498 203.432 136.143C203.521 136.143 203.876 136.291 203.92 136.424C203.921 136.523 203.896 136.621 203.85 136.708C203.804 136.796 203.736 136.871 203.654 136.926C202.397 137.163 201.14 137.355 199.883 137.562C199.883 137.562 199.765 137.474 199.602 137.326L200.859 137V136.808L198.05 137.045V136.912L198.893 136.601L198.863 136.542Z" fill="#C3C3C3"/>
<path opacity="0.51" d="M345.216 216.794L348.691 213.836C348.842 213.897 348.982 213.982 349.105 214.088C349.223 214.191 349.356 214.472 349.312 214.516C348.942 214.916 348.927 215.625 348.247 215.773C348.092 215.823 347.957 215.922 347.863 216.054C346.828 217.341 346.828 217.341 345.216 216.794Z" fill="#C3C3C3"/>
<path opacity="0.51" d="M322.087 191.108L322.723 192.439L322.191 192.838L321.555 191.581C321.555 192.956 321.555 193.06 321.082 193.341C320.978 192.838 320.86 192.335 320.757 191.862H320.579C320.845 190.99 321.111 190.132 321.378 189.23C322.191 189.112 323.137 190.014 323.891 188.831C323.625 189.703 323.537 189.762 322.842 189.718C322.464 189.659 322.08 189.659 321.703 189.718C320.964 189.969 321.452 190.354 321.599 190.679L322.93 190.235L323.004 190.413L322.087 191.108Z" fill="#C3C3C3"/>
<path opacity="0.51" d="M253.666 151.847V150.59C253.956 150.338 254.232 150.072 254.494 149.792C254.938 149.289 255.381 149.629 255.766 149.792C256.15 149.954 256.076 150.294 255.692 150.531C255.692 150.531 255.603 150.694 255.603 150.797C255.603 150.901 255.692 151.61 255.603 151.684C255.057 151.957 254.482 152.165 253.888 152.305C253.77 152.305 253.607 152.098 253.459 151.98L253.666 151.847Z" fill="#C3C3C3"/>
<path opacity="0.51" d="M208.18 138.257L207.632 138.701L208.431 139.056C208.668 139.899 207.795 139.869 207.455 140.209C207.455 140.209 207.011 139.958 206.775 139.825L205.385 139.026V138.775L206.597 138.982L205.961 138.316C206.25 138.018 206.644 137.844 207.058 137.833C207.473 137.822 207.876 137.974 208.18 138.257V138.257Z" fill="#C3C3C3"/>
<path opacity="0.51" d="M333.741 153.917H333.046C333.12 154.627 333.194 155.322 333.268 155.958H332.587C333.031 154.08 331.996 152.054 333.075 149.954C333.312 151.403 333.519 152.66 333.741 153.917Z" fill="#C3C3C3"/>
<path opacity="0.51" d="M313.807 193.415C314.289 193.578 314.783 193.702 315.285 193.785C316.069 193.873 316.853 193.873 317.651 193.918C317.846 193.9 318.04 193.952 318.199 194.065L317.725 194.317L318.953 194.805V194.997C318.339 194.999 317.726 194.955 317.119 194.864C316.17 194.734 315.231 194.536 314.309 194.273C314.148 194.234 314.007 194.133 313.919 193.992C313.83 193.851 313.801 193.681 313.836 193.518C313.831 193.474 313.831 193.429 313.836 193.385L313.807 193.415Z" fill="#C3C3C3"/>
<path opacity="0.51" d="M332.128 158.901L331.759 159.714C331.433 158.694 331.581 158.354 332.276 158.339L332.513 156.609C333.149 156.978 333.297 157.999 334.258 157.673L334.406 158.398L333.075 159.167L332.128 158.901Z" fill="#C3C3C3"/>
<path opacity="0.51" d="M331.759 135.152C331.337 135.137 330.917 135.093 330.502 135.019C330.369 135.019 330.162 134.708 330.191 134.59C330.221 134.472 330.443 134.28 330.605 134.176C330.657 134.154 330.712 134.143 330.768 134.143C330.824 134.143 330.879 134.154 330.931 134.176C331.862 134.316 332.809 134.316 333.74 134.176C333.918 134.176 334.095 134.413 334.258 134.531C334.11 134.664 333.977 134.915 333.799 134.945C333.119 135.049 332.454 135.093 331.759 135.152Z" fill="#C3C3C3"/>
<path opacity="0.51" d="M351.648 212.003C351.56 212.225 351.451 212.438 351.322 212.639C350.938 213.171 350.524 213.688 350.11 214.117C350.097 214.13 350.083 214.141 350.066 214.148C350.05 214.155 350.032 214.158 350.014 214.158C349.996 214.158 349.978 214.155 349.962 214.148C349.945 214.141 349.93 214.13 349.918 214.117C349.903 214.079 349.903 214.037 349.918 213.999L349.326 212.846L349.859 211.455C350.391 211.204 350.79 212.742 351.633 211.677L351.648 212.003Z" fill="#C3C3C3"/>
<path opacity="0.51" d="M205.755 136.276V135.773L206.701 136.276L206.479 135.729C206.852 135.684 207.23 135.684 207.603 135.729C207.736 135.729 207.899 136.157 207.869 136.364C207.84 136.571 207.662 137.104 207.47 137.133C207.278 137.163 206.849 136.941 206.538 136.838C206.228 136.734 206.08 136.734 205.858 136.675C205.625 136.629 205.397 136.559 205.178 136.468C204.957 136.329 204.744 136.175 204.542 136.01C204.646 135.891 204.793 135.684 204.823 135.699C205.069 135.829 205.302 135.983 205.518 136.157C205.569 136.211 205.614 136.271 205.651 136.335L205.755 136.276Z" fill="#C3C3C3"/>
<path opacity="0.51" d="M214.745 177.4C214.993 176.977 215.386 176.659 215.851 176.504C216.316 176.349 216.822 176.368 217.274 176.557C218.265 177.06 219.226 177.622 220.335 178.213L218.856 178.39C218.531 177.991 218.324 177.592 217.998 177.415C217.409 177.098 216.768 176.888 216.106 176.793C215.677 176.764 215.218 177.163 214.745 177.4Z" fill="#C3C3C3"/>
<path opacity="0.51" d="M321.348 178.997C322.472 179.337 322.664 179.84 322.236 180.476C321.807 181.111 321.969 181.422 322.753 181.585C322.99 181.648 323.222 181.727 323.448 181.821L323.182 182.398C322.664 181.91 321.807 182.013 321.289 181.333C320.772 180.653 321.91 179.943 321.348 178.997Z" fill="#C3C3C3"/>
<path opacity="0.51" d="M211.344 138.036C211.335 138.178 211.297 138.318 211.233 138.445C211.168 138.573 211.079 138.686 210.97 138.779C210.861 138.871 210.735 138.941 210.598 138.983C210.462 139.026 210.318 139.041 210.176 139.026V139.026C210.072 139.026 209.88 139.026 209.865 139.115C209.777 139.751 209.303 139.529 209.17 139.278C209.037 139.026 208.874 138.361 209.067 138.139C209.413 137.9 209.83 137.786 210.25 137.814C210.622 137.843 210.99 137.918 211.344 138.036V138.036Z" fill="#C3C3C3"/>
<path opacity="0.51" d="M324.04 185.932L324.159 186.524L323.922 186.657L323.035 185.503L322.355 185.636L322.251 185.459L324.38 184.261L324.528 185.932H324.04Z" fill="#C3C3C3"/>
<path opacity="0.51" d="M309.682 130.967L306.162 131.78C306.162 131.558 306.162 131.248 306.28 131.159C306.758 130.78 307.342 130.559 307.951 130.524C308.559 130.49 309.164 130.644 309.682 130.967Z" fill="#C3C3C3"/>
<path opacity="0.51" d="M195.507 136.024C196.04 135.695 196.599 135.408 197.178 135.167C197.75 135.022 198.334 134.928 198.923 134.886L199.056 135.167C198.787 135.437 198.501 135.689 198.198 135.921C198.043 135.823 197.894 135.715 197.755 135.596C197.193 136.276 195.788 136.542 195.507 136.024Z" fill="#C3C3C3"/>
<path opacity="0.51" d="M220.188 179.071L221.444 179.174L220.823 178.45C222.021 178.139 223.337 178.598 223.278 179.337C222.228 179.248 221.134 179.766 220.188 179.071Z" fill="#C3C3C3"/>
<path opacity="0.51" d="M216.549 147.514C216.106 147.514 215.707 147.677 215.559 147.514C215.1 147.13 214.819 147.514 214.42 147.514C214.003 147.574 213.58 147.574 213.163 147.514C214.021 146.169 214.243 146.036 215.307 146.686L215.514 146.805L216.549 147.514Z" fill="#C3C3C3"/>
<path opacity="0.51" d="M310.849 131.233L310.613 132.046C308.912 132.313 308.439 132.253 307.581 131.514L310.849 131.233Z" fill="#C3C3C3"/>
<path opacity="0.51" d="M272.89 131.633C272.07 131.724 271.245 131.763 270.42 131.751C269.787 131.643 269.173 131.438 268.602 131.145H272.89V131.633Z" fill="#C3C3C3"/>
<path opacity="0.51" d="M207.085 134.679L204.32 134.102L204.941 133.836L204.039 133.585V133.318C204.411 133.341 204.781 133.385 205.148 133.451C205.515 133.525 205.872 133.639 206.213 133.792C206.559 133.977 206.89 134.19 207.204 134.427L207.085 134.679Z" fill="#C3C3C3"/>
<path opacity="0.51" d="M313.645 132.623L310.554 132.875L310.421 132.741C310.924 132.446 311.412 131.958 311.9 131.913C312.509 131.961 313.105 132.116 313.659 132.372L313.645 132.623Z" fill="#C3C3C3"/>
<path opacity="0.51" d="M300.602 184.173C300.925 184.64 301.207 185.135 301.445 185.651C301.445 185.814 301.178 186.287 300.942 186.361C300.483 186.539 300.306 186.228 300.35 185.784C300.395 185.341 300.35 184.779 300.35 184.306L300.602 184.173Z" fill="#C3C3C3"/>
<path opacity="0.51" d="M334.909 215.611L334.096 213.836C334.587 213.789 335.083 213.789 335.574 213.836C335.722 213.836 335.929 214.354 335.855 214.502C335.587 214.909 335.269 215.281 334.909 215.611Z" fill="#C3C3C3"/>
<path opacity="0.51" d="M326.628 165.156C327.53 165.88 327.471 166.753 326.509 167.285V166.028L326.14 165.806L326.628 165.156Z" fill="#C3C3C3"/>
<path opacity="0.51" d="M263.264 160.113L263.796 159.891C263.796 160.054 263.988 160.231 263.944 160.32C263.766 160.719 264.195 161.474 263.264 161.518V160.113Z" fill="#C3C3C3"/>
<path opacity="0.51" d="M266.635 163.189L265.274 162.361V162.183H266.753L266.635 163.189Z" fill="#C3C3C3"/>
<path opacity="0.51" d="M216.15 138.08L218.176 138.538L218.088 138.864C217.481 138.538 216.594 139.485 216.15 138.08Z" fill="#C3C3C3"/>
<path opacity="0.51" d="M207.411 133.703C208.077 133.836 208.52 133.91 208.979 134.028C209.017 134.057 209.048 134.095 209.069 134.139C209.09 134.183 209.099 134.231 209.097 134.28C209.051 134.398 208.961 134.493 208.846 134.546C208.224 134.738 207.825 134.501 207.411 133.703Z" fill="#C3C3C3"/>
<path opacity="0.51" d="M322.324 175.123L321.659 177.119C321.097 176.232 321.245 175.714 322.324 175.123Z" fill="#C3C3C3"/>
<path opacity="0.51" d="M336.106 193.149C336.449 193.208 336.799 193.208 337.142 193.149C337.408 193.03 337.6 192.69 338.014 192.528C337.895 192.785 337.746 193.029 337.57 193.252C337.413 193.436 337.189 193.549 336.948 193.569C336.708 193.588 336.469 193.512 336.284 193.356C336.21 193.301 336.149 193.23 336.106 193.149V193.149Z" fill="#C3C3C3"/>
<path opacity="0.51" d="M208.372 136.912L209.718 136.468L209.836 137.311C209.56 137.326 209.284 137.326 209.008 137.311C208.796 137.257 208.589 137.188 208.387 137.104L208.372 136.912Z" fill="#C3C3C3"/>
<path opacity="0.51" d="M324.912 194.879L322.827 196.357C322.921 195.891 323.189 195.479 323.576 195.204C323.964 194.929 324.442 194.813 324.912 194.879V194.879Z" fill="#C3C3C3"/>
<path opacity="0.51" d="M207.825 143.315L208.978 143.995V144.172L207.145 144.01L207.825 143.315Z" fill="#C3C3C3"/>
<path opacity="0.51" d="M208.283 135.344L209.954 135.492C209.333 136.246 208.816 135.773 208.269 135.492L208.283 135.344Z" fill="#C3C3C3"/>
<path opacity="0.51" d="M200.047 134.664L201.733 134.383C201.437 135.182 200.86 135.3 200.047 134.664Z" fill="#C3C3C3"/>
<path opacity="0.51" d="M328.624 164.831C329.097 165.925 327.826 165.466 327.826 166.043C327.382 165.156 328.269 165.259 328.624 164.831Z" fill="#C3C3C3"/>
<path opacity="0.51" d="M326.85 192.069H325.253C325.253 191.906 325.386 191.611 325.46 191.611C325.992 191.566 326.569 191.463 326.85 192.069Z" fill="#C3C3C3"/>
</g>
<path d="M176.313 155.234C177.636 155.234 178.708 154.161 178.708 152.838C178.708 151.515 177.636 150.442 176.313 150.442C174.99 150.442 173.917 151.515 173.917 152.838C173.917 154.161 174.99 155.234 176.313 155.234Z" fill="#24285B"/>
<path d="M231.529 143.877C232.852 143.877 233.925 142.804 233.925 141.481C233.925 140.158 232.852 139.085 231.529 139.085C230.206 139.085 229.134 140.158 229.134 141.481C229.134 142.804 230.206 143.877 231.529 143.877Z" fill="#24285B"/>
<path d="M283.227 160.557C284.55 160.557 285.622 159.484 285.622 158.161C285.622 156.838 284.55 155.766 283.227 155.766C281.904 155.766 280.831 156.838 280.831 158.161C280.831 159.484 281.904 160.557 283.227 160.557Z" fill="#24285B"/>
<path d="M314.148 195.248C315.471 195.248 316.543 194.176 316.543 192.853C316.543 191.53 315.471 190.457 314.148 190.457C312.824 190.457 311.752 191.53 311.752 192.853C311.752 194.176 312.824 195.248 314.148 195.248Z" fill="#24285B"/>
<path d="M209.141 164.254C210.464 164.254 211.536 163.181 211.536 161.858C211.536 160.535 210.464 159.463 209.141 159.463C207.818 159.463 206.745 160.535 206.745 161.858C206.745 163.181 207.818 164.254 209.141 164.254Z" fill="#24285B"/>
<path d="M328.299 147.056C329.622 147.056 330.694 145.984 330.694 144.66C330.694 143.337 329.622 142.265 328.299 142.265C326.976 142.265 325.903 143.337 325.903 144.66C325.903 145.984 326.976 147.056 328.299 147.056Z" fill="#24285B"/>
<path d="M178.708 147.603C178.708 147.603 178.782 147.352 178.945 146.908" stroke="#24285B" stroke-width="0.25375" stroke-linecap="round" stroke-linejoin="round"/>
<path d="M182.687 140.52C186.013 136.365 190.486 133.28 195.552 131.647C209.127 127.122 236.01 128.231 230.835 141.437C225.659 154.642 209.718 157.762 209.141 162.686C208.565 167.611 204.868 179.618 220.824 178.465C236.779 177.311 245.726 153.799 283.227 158.176C309.682 161.267 321.246 153.267 325.756 148.298" stroke="#24285B" stroke-width="0.25375" stroke-linecap="round" stroke-linejoin="round" stroke-dasharray="1.01 5.09"/>
<path d="M327.959 145.311C328.196 144.897 328.299 144.66 328.299 144.66C328.299 144.66 328.506 144.823 328.846 145.148" stroke="#24285B" stroke-width="0.25375" stroke-linecap="round" stroke-linejoin="round"/>
<path d="M332.972 151.137C334.4 154.396 335.082 157.932 334.968 161.488C334.746 171.633 331.596 181.481 322.798 187.189" stroke="#24285B" stroke-width="0.25375" stroke-linecap="round" stroke-linejoin="round" stroke-dasharray="1 5.02"/>
<path d="M319.575 188.993L318.909 189.289" stroke="#24285B" stroke-width="0.25375" stroke-linecap="round" stroke-linejoin="round"/>
<path d="M384.95 135.403C406.6 135.403 424.151 117.852 424.151 96.2017C424.151 74.5512 406.6 57 384.95 57C363.299 57 345.748 74.5512 345.748 96.2017C345.748 117.852 363.299 135.403 384.95 135.403Z" fill="#24285B"/>
<path d="M397.608 344.588H256.846V374H397.608V344.588Z" fill="#E6E6E6"/>
<path opacity="0.58" d="M371.789 329.608C371.789 329.608 359.486 326.251 356.81 314.82C356.81 314.82 375.871 310.961 376.403 330.643L371.789 329.608Z" fill="#FF3E3E"/>
<path opacity="0.73" d="M373.297 328.395C373.297 328.395 364.705 314.806 372.262 302.103C372.262 302.103 386.754 311.301 380.306 328.425L373.297 328.395Z" fill="#FF3E3E"/>
<path d="M375.501 328.395C375.501 328.395 380.041 314.051 393.778 311.331C393.778 311.331 396.351 320.647 384.906 328.44L375.501 328.395Z" fill="#FF3E3E"/>
<path d="M366.584 328.085L369.083 345.135L384.787 345.209L387.094 328.159L366.584 328.085Z" fill="#24285B"/>
<path d="M345.216 336.647H280.831V345.209H345.216V336.647Z" fill="#C3C3C3"/>
<path opacity="0.55" d="M350.998 328.085H286.613V336.647H350.998V328.085Z" fill="#C3C3C3"/>
<path d="M399.265 91.0112C399.261 88.8042 398.748 86.6279 397.764 84.652C396.781 82.6761 395.355 80.954 393.597 79.6199C391.839 78.2859 389.796 77.376 387.629 76.9612C385.461 76.5464 383.227 76.6379 381.1 77.2286C378.974 77.8192 377.013 78.8931 375.37 80.3665C373.726 81.8399 372.446 83.6728 371.628 85.7225C370.809 87.7722 370.476 89.9832 370.653 92.1831C370.829 94.383 371.512 96.5123 372.647 98.4049V98.4049L384.891 118.442L397.106 98.612C398.528 96.3327 399.276 93.6977 399.265 91.0112V91.0112ZM384.95 98.612C383.563 98.6149 382.207 98.2063 381.052 97.4379C379.898 96.6695 378.997 95.5758 378.464 94.2953C377.931 93.0148 377.79 91.605 378.059 90.2443C378.328 88.8837 378.994 87.6334 379.974 86.6516C380.954 85.6699 382.203 85.0008 383.563 84.7292C384.923 84.4575 386.333 84.5955 387.614 85.1256C388.896 85.6556 389.992 86.554 390.763 87.707C391.533 88.86 391.945 90.2158 391.945 91.6027C391.945 93.4591 391.208 95.2397 389.897 96.5538C388.586 97.8678 386.807 98.608 384.95 98.612V98.612Z" fill="#D3EBF1"/>
</svg>
