<svg width="432" height="432" viewBox="0 0 432 432" fill="none" xmlns="http://www.w3.org/2000/svg">
<path opacity="0.3" d="M84.897 116.95C48.7427 140.637 27.3263 184.106 30.7256 229.497C32.4672 252.715 40.3347 275.248 61.679 287.332C118.769 319.763 367.537 319.486 401.445 262.877C436.375 204.561 424.375 123.376 344.992 89.2639C276.118 59.6678 178.25 55.7641 84.897 116.95Z" fill="#E6E6E6"/>
<path d="M69.4619 297.746V279.909H97.0881V297.746" stroke="#E6E6E6" stroke-width="3.045" stroke-linecap="round" stroke-linejoin="round"/>
<path opacity="0.45" d="M205.287 370.126C314.246 370.126 402.574 361.694 402.574 351.293C402.574 340.891 314.246 332.459 205.287 332.459C96.3285 332.459 8 340.891 8 351.293C8 361.694 96.3285 370.126 205.287 370.126Z" fill="#E6E6E6"/>
<path d="M73.3901 180.406C73.3901 179.386 73.189 178.376 72.7983 177.434C72.4076 176.492 71.835 175.636 71.1132 174.916C70.3914 174.195 69.5346 173.624 68.5918 173.234C67.649 172.845 66.6387 172.646 65.6188 172.647C65.216 172.649 64.8142 172.685 64.4176 172.755C63.5204 171.09 62.1892 169.698 60.5652 168.727C58.9412 167.756 57.0848 167.243 55.1929 167.242H54.8085C55.0581 166.256 55.1872 165.244 55.1929 164.227C55.2446 162.563 54.9615 160.905 54.3603 159.352C53.7592 157.8 52.8522 156.383 51.6932 155.188C50.5343 153.992 49.147 153.042 47.6136 152.393C46.0803 151.743 44.4322 151.409 42.7671 151.409C41.102 151.409 39.4539 151.743 37.9205 152.393C36.3872 153.042 34.9999 153.992 33.8409 155.188C32.6819 156.383 31.775 157.8 31.1738 159.352C30.5726 160.905 30.2895 162.563 30.3413 164.227C30.3469 165.244 30.476 166.256 30.7256 167.242H30.3413C28.9368 167.194 27.5371 167.43 26.2255 167.935C24.9139 168.439 23.7173 169.203 22.7069 170.179C21.6965 171.156 20.893 172.326 20.3443 173.62C19.7955 174.914 19.5127 176.305 19.5127 177.71C19.5127 179.115 19.7955 180.506 20.3443 181.8C20.893 183.094 21.6965 184.264 22.7069 185.24C23.7173 186.217 24.9139 186.981 26.2255 187.485C27.5371 187.99 28.9368 188.225 30.3413 188.178H66.6397V188.106C68.5079 187.861 70.2231 186.944 71.4652 185.528C72.7073 184.111 73.3915 182.291 73.3901 180.406V180.406Z" fill="#E6E6E6"/>
<path d="M397.481 99.81C397.484 97.0363 396.387 94.3746 394.43 92.4088C392.473 90.4429 389.817 89.3336 387.043 89.324C386.48 89.3292 385.918 89.3774 385.362 89.4682C384.155 87.2212 382.361 85.3432 380.172 84.0341C377.983 82.7249 375.48 82.0334 372.93 82.0331C372.75 82.0331 372.581 82.0331 372.413 82.0331C373.079 79.542 373.163 76.9312 372.659 74.4024C372.155 71.8736 371.076 69.4946 369.506 67.4493C367.936 65.4041 365.916 63.7473 363.603 62.6072C361.29 61.467 358.746 60.874 356.168 60.874C353.589 60.874 351.045 61.467 348.732 62.6072C346.42 63.7473 344.4 65.4041 342.83 67.4493C341.259 69.4946 340.181 71.8736 339.676 74.4024C339.172 76.9312 339.256 79.542 339.922 82.0331C339.754 82.0331 339.586 82.0331 339.406 82.0331C335.733 82.1403 332.245 83.6748 329.685 86.311C327.125 88.9473 325.692 92.4776 325.692 96.1525C325.692 99.8275 327.125 103.358 329.685 105.994C332.245 108.63 335.733 110.165 339.406 110.272H388.412V110.176C390.923 109.839 393.225 108.602 394.893 106.696C396.561 104.789 397.48 102.343 397.481 99.81V99.81Z" fill="#E6E6E6"/>
<path d="M171.68 180.55L198.669 146.918L204.495 152.023L181.493 190.484L171.68 180.55Z" fill="#FF3E3E"/>
<path d="M137.711 136.313L142.684 151.243L130.864 158.762L126.612 132.865L137.711 136.313Z" fill="#F4A28C"/>
<path d="M122.553 118.428C123.17 117.005 124.132 115.759 125.354 114.803C126.575 113.847 128.016 113.212 129.545 112.955C131.074 112.699 132.643 112.829 134.11 113.333C135.576 113.838 136.893 114.702 137.94 115.845C142.973 121.214 149.038 129.754 142.18 134.403C131.67 141.526 122.037 128.229 122.037 128.229C121.236 124.983 121.416 121.572 122.553 118.428Z" fill="#F4A28C"/>
<path d="M130.227 127.592C130.227 127.592 127.537 125.334 126.323 128.529C125.11 131.724 129.855 133.334 131.272 131.664C132.689 129.994 130.227 127.592 130.227 127.592Z" fill="#F4A28C"/>
<path d="M117.064 166.089C118.845 162.13 121.459 158.602 124.728 155.746C127.997 152.889 131.844 150.772 136.006 149.537C152.077 144.733 181.649 149.994 190.67 165.02C203.017 185.595 184.94 250.949 184.94 250.949L130.961 255.141C130.961 255.141 101.269 201.57 117.064 166.089Z" fill="#FF3E3E"/>
<path d="M140.69 148.18C140.69 148.18 115.466 229.509 188.351 234.902L184.952 250.998L130.973 255.189C130.973 255.189 111.947 225.317 112.751 183.361C112.751 183.361 113.208 162.618 127.814 153.453C131.68 150.797 136.071 148.999 140.69 148.18Z" fill="#757C7F"/>
<path d="M162.706 149.116C160.008 153.44 158.578 158.434 158.578 163.53C158.578 168.626 160.008 173.62 162.706 177.944C168.591 187.877 185.72 207.228 197.431 219.984C198.754 221.428 200.401 222.538 202.237 223.221C204.073 223.904 206.045 224.142 207.99 223.915C209.936 223.687 211.799 223.001 213.428 221.912C215.057 220.824 216.403 219.364 217.358 217.653L242.582 173.307L234.041 167.83L210.98 201.63C210.98 201.63 195.149 149.765 162.706 149.116Z" fill="#FF3E3E"/>
<path opacity="0.2" d="M162.706 149.116C160.008 153.44 158.578 158.434 158.578 163.53C158.578 168.626 160.008 173.62 162.706 177.944C168.591 187.877 185.72 207.228 197.431 219.984C198.754 221.428 200.401 222.538 202.237 223.221C204.073 223.904 206.045 224.142 207.99 223.915C209.936 223.687 211.799 223.001 213.428 221.912C215.057 220.824 216.403 219.364 217.358 217.653L242.582 173.307L234.041 167.83L210.98 201.63C210.98 201.63 195.149 149.765 162.706 149.116Z" fill="white"/>
<path d="M239.544 171.398C239.544 171.398 253.825 166.149 247.952 158.077C242.078 150.006 233.935 167.831 233.935 167.831L239.544 171.398Z" fill="#F4A28C"/>
<path d="M127.394 137.61L119.394 129.334C118.57 128.473 117.932 127.452 117.519 126.334C117.106 125.216 116.926 124.026 116.992 122.836C117.184 118.62 118.085 111.905 121.568 106.861C127.045 98.9571 134.324 95.9662 136.138 102.801C137.952 109.635 138.312 101.515 142.72 105.203C147.128 108.89 146.227 110.968 142.72 112.89C139.213 114.812 131.97 117.599 131.321 123.376C130.673 129.154 136.114 133.766 127.394 137.61Z" fill="#24285B"/>
<path d="M206.452 146.558L219.112 117.479L227.364 128.037L243.399 120.398L250.402 132.229L267.674 129.754L257.417 162.798L240.637 167.122L232.925 154.486L216.854 158.906L206.452 146.558Z" fill="#D3EBF1"/>
<path opacity="0.2" d="M219.917 124.673L210.752 145.045L218.415 154.618L234.943 149.117L241.693 163.686L254.473 160.059L262.737 133.958L247.903 136.505L241.693 124.673L226.679 132.313L219.917 124.673Z" fill="white"/>
<path d="M227.363 128.037L216.854 158.906L232.925 154.486L243.399 120.397L227.363 128.037Z" fill="#757C7F"/>
<path d="M250.403 132.228L240.638 167.122L257.418 162.797L267.675 129.754L250.403 132.228Z" fill="#757C7F"/>
<path d="M199.667 147.807C199.667 147.807 201.265 140.529 204.472 138.655C207.679 136.781 214.261 138.258 211.45 142.258C208.64 146.258 204.472 152.023 204.472 152.023L199.667 147.807Z" fill="#F4A28C"/>
<path d="M125.255 290.467H40.4307V353.25H125.255V290.467Z" fill="#DBDEDF"/>
<path d="M110.553 290.467L89.377 353.25H118.805L128.414 320.543L125.255 290.467H110.553Z" fill="#757C7F"/>
<path d="M184.747 250.817L177.564 344.686H166.201L156.076 271.753L130.972 255.057L184.747 250.817Z" fill="#24285B"/>
<path d="M130.972 255.057L115.297 344.686H127.476L153.769 270.216L130.972 255.057Z" fill="#24285B"/>
<path d="M117.507 344.686L109.964 350.248C109.683 350.455 109.475 350.745 109.369 351.078C109.263 351.41 109.265 351.768 109.374 352.099C109.483 352.431 109.694 352.719 109.977 352.924C110.26 353.128 110.6 353.238 110.949 353.238H123.597C123.815 353.24 124.031 353.198 124.233 353.115C124.435 353.033 124.618 352.911 124.772 352.756C124.927 352.602 125.049 352.419 125.131 352.217C125.214 352.015 125.256 351.799 125.254 351.581V344.686H117.507Z" fill="#FF3E3E"/>
<path d="M177.241 344.686L184.352 350.248C184.628 350.461 184.831 350.756 184.931 351.091C185.031 351.426 185.024 351.784 184.909 352.114C184.795 352.444 184.58 352.73 184.295 352.932C184.01 353.134 183.668 353.241 183.319 353.238H174.31C173.036 353.238 171.814 352.732 170.913 351.831C170.012 350.93 169.506 349.708 169.506 348.434V344.686H177.241Z" fill="#FF3E3E"/>
<path d="M332.548 164.623H325.545V348.722H332.548V164.623Z" fill="#D3EBF1"/>
<path opacity="0.49" d="M61.8833 299.872H52.6465V309.109H61.8833V299.872Z" fill="#E6E6E6"/>
<path opacity="0.49" d="M67.8408 307.703L75.8644 302.454V312.364L67.8408 307.703Z" fill="#E6E6E6"/>
<path opacity="0.49" d="M65.3547 330.561C70.1642 330.561 74.063 326.662 74.063 321.853C74.063 317.043 70.1642 313.144 65.3547 313.144C60.5453 313.144 56.6465 317.043 56.6465 321.853C56.6465 326.662 60.5453 330.561 65.3547 330.561Z" fill="#E6E6E6"/>
<path d="M297.174 207.192H338.758V192.25H297.174V207.192Z" fill="#24285B"/>
<path d="M297.174 188.033V211.468L278.256 199.721L297.174 188.033Z" fill="#24285B"/>
<path d="M361.243 157.128H319.659V172.07H361.243V157.128Z" fill="#24285B"/>
<path d="M361.243 152.9V176.347L380.161 164.599L361.243 152.9Z" fill="#24285B"/>
<path d="M326.001 347.917C326.001 347.917 337.436 331.473 320.392 326.945C303.348 322.417 324.5 300.268 308.621 297.361C292.742 294.454 295.408 317.877 295.408 317.877C295.408 317.877 284.454 308.436 276.899 316.363C269.344 324.291 279.926 332.999 279.926 332.999C279.926 332.999 264.659 338.272 274.172 347.917H326.001Z" fill="#E6E6E6"/>
<path d="M303.085 350.104C303.085 350.104 310.292 337.684 321.042 339.209C331.792 340.735 330.591 350.104 330.591 350.104H303.085Z" fill="#DBDEDF"/>
<path d="M354.829 162.197H334.854V167.134H354.829V162.197Z" fill="white"/>
<path d="M322.699 197.282H302.724V202.219H322.699V197.282Z" fill="white"/>
</svg>
