<svg width="432" height="432" viewBox="0 0 432 432" fill="none" xmlns="http://www.w3.org/2000/svg">
<path opacity="0.45" d="M220.525 397C331.797 397 422 389.763 422 380.836C422 371.908 331.797 364.671 220.525 364.671C109.254 364.671 19.0508 371.908 19.0508 380.836C19.0508 389.763 109.254 397 220.525 397Z" fill="#E6E6E6"/>
<path d="M307.785 377.039H403.746V359.568H307.785V377.039Z" fill="#E6E6E6"/>
<path d="M307.785 359.479H392.312V342.008H307.785V359.479Z" fill="#C2C2C2"/>
<path opacity="0.58" d="M362.698 322.647C362.698 322.647 347.239 318.475 343.883 304.261C343.883 304.261 367.831 299.474 368.515 323.908L362.698 322.647Z" fill="#FF3E3E"/>
<path opacity="0.73" d="M364.596 321.131C364.596 321.131 353.784 304.261 363.29 288.487C363.29 288.487 381.514 299.909 373.419 321.161L364.596 321.131Z" fill="#FF3E3E"/>
<path d="M367.375 321.146C367.375 321.146 373.085 303.331 390.321 299.954C390.321 299.954 393.556 311.526 379.159 321.191L367.375 321.146Z" fill="#FF3E3E"/>
<path d="M356.168 320.741L359.296 341.933L379.038 342.008L381.939 320.846L356.168 320.741Z" fill="#24285B"/>
<path d="M336.821 34H120.343V377.023H336.821V34Z" fill="#DBDEDF"/>
<path d="M319.888 53.2561H137.275V320.246H319.888V53.2561Z" fill="#E6E6E6"/>
<path d="M202.211 132.112H151.216V137.86H202.211V132.112Z" fill="#757C7F"/>
<path d="M191.231 142.558H151.216V148.306H191.231V142.558Z" fill="#757C7F"/>
<path d="M183.122 153.019H151.216V158.767H183.122V153.019Z" fill="#757C7F"/>
<path d="M178.445 126.829C194.749 126.829 207.967 113.766 207.967 97.652C207.967 81.538 194.749 68.4751 178.445 68.4751C162.14 68.4751 148.923 81.538 148.923 97.652C148.923 113.766 162.14 126.829 178.445 126.829Z" fill="#FF3E3E"/>
<path d="M243.745 73.6379H222.576V87.1458H243.745V73.6379Z" fill="#757C7F"/>
<path d="M245.765 92.3086H220.525V96.6161H245.765V92.3086Z" fill="#757C7F"/>
<path d="M275.256 73.6379H254.087V87.1458H275.256V73.6379Z" fill="#757C7F"/>
<path d="M277.291 92.3086H252.052V96.6161H277.291V92.3086Z" fill="#757C7F"/>
<path d="M306.767 73.6379H285.598V87.1458H306.767V73.6379Z" fill="#757C7F"/>
<path d="M308.802 92.3086H283.562V96.6161H308.802V92.3086Z" fill="#757C7F"/>
<path d="M308.802 103.1H220.479V115.857H308.802V103.1Z" fill="#757C7F"/>
<path d="M198.141 199.276H137.275V259.43H198.141V199.276Z" fill="#F2F2F2"/>
<path d="M259.007 199.276H198.141V259.43H259.007V199.276Z" fill="#F2F2F2"/>
<path d="M319.874 199.276H259.008V259.43H319.874V199.276Z" fill="#F2F2F2"/>
<path d="M198.141 259.506H137.275V319.66H198.141V259.506Z" fill="#F2F2F2"/>
<path d="M259.007 259.506H198.141V319.66H259.007V259.506Z" fill="#F2F2F2"/>
<path d="M319.874 259.506H259.008V319.66H319.874V259.506Z" fill="#F2F2F2"/>
<path opacity="0.46" d="M259.007 199.276H198.141V259.43H259.007V199.276Z" fill="white"/>
<path opacity="0.46" d="M198.141 259.506H137.275V319.66H198.141V259.506Z" fill="white"/>
<path opacity="0.46" d="M319.874 259.506H259.008V319.66H319.874V259.506Z" fill="white"/>
<path d="M251.93 206.18H241.3V216.686H251.93V206.18Z" fill="#757C7F"/>
<path d="M190.67 271.783H180.04V282.289H190.67V271.783Z" fill="#757C7F"/>
<path d="M168.893 189.31C173.606 189.31 177.427 185.534 177.427 180.875C177.427 176.217 173.606 172.44 168.893 172.44C164.179 172.44 160.358 176.217 160.358 180.875C160.358 185.534 164.179 189.31 168.893 189.31Z" fill="#757C7F"/>
<path d="M208.68 189.31C213.394 189.31 217.215 185.534 217.215 180.875C217.215 176.217 213.394 172.44 208.68 172.44C203.967 172.44 200.146 176.217 200.146 180.875C200.146 185.534 203.967 189.31 208.68 189.31Z" fill="#757C7F"/>
<path d="M248.468 189.31C253.181 189.31 257.002 185.534 257.002 180.875C257.002 176.217 253.181 172.44 248.468 172.44C243.754 172.44 239.933 176.217 239.933 180.875C239.933 185.534 243.754 189.31 248.468 189.31Z" fill="#757C7F"/>
<path d="M288.255 189.31C292.969 189.31 296.79 185.534 296.79 180.875C296.79 176.217 292.969 172.44 288.255 172.44C283.542 172.44 279.721 176.217 279.721 180.875C279.721 185.534 283.542 189.31 288.255 189.31Z" fill="#757C7F"/>
<path d="M198.141 122.236C201.705 122.236 204.595 119.38 204.595 115.857C204.595 112.335 201.705 109.479 198.141 109.479C194.576 109.479 191.687 112.335 191.687 115.857C191.687 119.38 194.576 122.236 198.141 122.236Z" fill="#D3EBF1"/>
<path d="M228.574 359.373C235.594 359.373 241.285 353.749 241.285 346.811C241.285 339.873 235.594 334.249 228.574 334.249C221.554 334.249 215.863 339.873 215.863 346.811C215.863 353.749 221.554 359.373 228.574 359.373Z" fill="#F2F2F2"/>
<path d="M35.1783 185.948C34.662 189.445 38.7167 187.704 40.8731 187.674C42.0576 187.674 42.984 188.725 44.1229 189.04C48.5117 190.24 47.7524 185.288 47.4335 182.646C47.0235 179.389 43.561 175.472 39.8404 177.333C38.7429 178.008 37.8795 178.997 37.3651 180.17C36.5461 181.72 35.8897 183.35 35.4061 185.032C35.3087 185.332 35.2325 185.638 35.1783 185.948V185.948Z" fill="#F4A28C"/>
<path d="M61.9667 371.005C61.9667 371.005 59.6128 375.387 55.3455 375.132C51.0782 374.877 49.3774 378.809 53.0221 380.415C56.6667 382.021 67.1452 378.584 67.1452 378.584L67.9045 370.9L61.9667 371.005Z" fill="#FF3E3E"/>
<path d="M80.6308 90.6427C80.6308 90.6427 79.8412 99.4228 81.3142 105.276C81.6218 106.41 82.3655 107.381 83.3868 107.981C84.4081 108.581 85.6261 108.763 86.7812 108.488C88.6492 108.128 90.3723 107.242 91.7434 105.937C93.1146 104.633 94.0755 102.965 94.511 101.134L97.1989 93.4343C97.5889 91.8346 97.4634 90.1544 96.8399 88.6286C96.2164 87.1028 95.126 85.8078 93.7213 84.9244C88.6947 81.3824 80.8435 85.2696 80.6308 90.6427Z" fill="#F4A28C"/>
<path d="M96.7432 94.8301L101.269 123.392L85.1714 124.742L88.3453 103.415L96.7432 94.8301Z" fill="#F4A28C"/>
<path d="M82.8484 91.018C85.6018 91.124 88.3584 90.9176 91.0641 90.4027C90.2691 91.6026 89.8455 93.0057 89.8455 94.44C89.8455 95.8743 90.2691 97.2775 91.0641 98.4774C91.8143 99.6533 92.954 100.535 94.2889 100.973C95.6238 101.411 97.0711 101.378 98.3839 100.879L98.2624 89.5472C98.3013 87.93 97.8988 86.3324 97.0972 84.9221C96.2955 83.5118 95.1243 82.3409 93.7065 81.5326C92.4758 80.8258 91.1971 80.2039 89.8796 79.6715C86.5842 78.3507 81.7399 80.527 78.7937 78.3057C78.4947 78.0866 78.1434 77.9477 77.774 77.9026C77.4046 77.8574 77.0297 77.9076 76.6857 78.0481C76.3417 78.1886 76.0404 78.4147 75.811 78.7045C75.5816 78.9942 75.4321 79.3377 75.3769 79.7015C74.8453 83.1385 75.3769 88.5716 80.1757 90.4627C81.0313 90.7862 81.9334 90.9736 82.8484 91.018V91.018Z" fill="#24285B"/>
<path d="M90.0918 98.207C90.0918 98.207 90.0918 94.815 92.7494 95.0851C95.4069 95.3553 95.2551 100.263 91.7471 100.713L90.0918 98.207Z" fill="#F4A28C"/>
<path d="M80.4179 96.1958L77.9274 99.5878C77.7846 99.7796 77.6933 100.004 77.662 100.24C77.6307 100.476 77.6604 100.717 77.7483 100.938C77.8362 101.16 77.9796 101.356 78.1649 101.508C78.3502 101.661 78.5715 101.764 78.8082 101.809L82.225 102.454L80.4179 96.1958Z" fill="#F4A28C"/>
<path opacity="0.31" d="M87.4495 108.053C89.4504 107.579 91.2666 106.535 92.6736 105.051C92.6736 105.051 92.4306 110.334 86.5991 115.557L87.4495 108.053Z" fill="#CE8172"/>
<path d="M103.623 123.407L83.5769 125.073C83.5769 125.073 43.8803 136.614 45.49 173.476C47.0998 210.337 50.6989 255.618 50.6989 255.618L104.154 262.522C104.154 262.522 193.008 143.068 103.623 123.407Z" fill="#FF3E3E"/>
<path d="M104.169 147.961C104.169 147.961 93.2203 156.321 94.5567 178.759C95.893 201.197 101.269 226.681 77.8519 224.085C54.4349 221.488 47.7378 214.134 47.7378 214.134L50.775 255.723L104.23 262.627L109.044 255.723C109.044 255.723 143.866 179.164 104.169 147.961Z" fill="#757C7F"/>
<path d="M50.6992 255.678L36.3482 267.475C32.4771 270.654 29.4449 274.714 27.5119 279.307C25.579 283.899 24.8033 288.887 25.2514 293.841C25.6995 298.796 27.3581 303.569 30.0846 307.75C32.811 311.93 36.5239 315.395 40.9041 317.844L68.4366 333.183L77.5482 326.595L57.0621 309.695C55.7324 308.607 54.6832 307.223 54.0012 305.656C53.3192 304.089 53.0239 302.384 53.1396 300.682C53.2553 298.98 53.7787 297.33 54.6667 295.867C55.5546 294.405 56.7817 293.171 58.2467 292.27L65.5816 287.767C69.6561 285.241 74.236 283.618 79.0061 283.009C86.9485 282.019 100.267 278.011 104.154 262.597L50.6992 255.678Z" fill="#24285B"/>
<path d="M102.438 155.105C103.38 136.96 126.827 129.921 137.625 144.599C144.261 153.604 148.878 166.542 145.643 184.282C137.625 228.182 132.947 262.507 109.196 260.196C85.4451 257.885 40.7827 206.495 40.7827 206.495L54.4502 197.58C54.4502 197.58 82.1801 227.282 99.872 227.597C112.446 227.807 100.829 186.008 102.438 155.105Z" fill="#FF3E3E"/>
<path d="M36.871 170.141L23.2612 174.496L31.2039 198.742L44.8137 194.387L36.871 170.141Z" fill="#D3EBF1"/>
<path opacity="0.44" d="M102.438 155.105C103.38 136.96 126.827 129.921 137.625 144.599C144.261 153.604 148.878 166.542 145.643 184.282C137.625 228.182 132.947 262.507 109.196 260.196C85.4451 257.885 40.7827 206.495 40.7827 206.495L54.4502 197.58C54.4502 197.58 82.1801 227.282 99.872 227.597C112.446 227.807 100.829 186.008 102.438 155.105Z" fill="white"/>
<path d="M44.0315 204.333C44.0315 204.333 34.1909 196.829 37.3192 191.261C40.4476 185.693 52.9458 198.525 52.9458 198.525L44.0315 204.333Z" fill="#F4A28C"/>
<path d="M104.154 262.582L67.9047 370.9L58.793 370.81C58.793 370.81 71.1545 298.528 69.8181 268.166L104.154 262.582Z" fill="#24285B"/>
<path d="M50.137 98.5375H17.8816C16.8453 98.5375 15.8192 98.7395 14.8619 99.1319C13.9047 99.5243 13.0352 100.099 12.3031 100.824C11.571 101.549 10.9908 102.41 10.5956 103.357C10.2004 104.303 9.99802 105.318 10 106.342V124.653C9.99802 125.677 10.2004 126.691 10.5956 127.638C10.9908 128.585 11.571 129.445 12.3031 130.17C13.0352 130.895 13.9047 131.47 14.8619 131.863C15.8192 132.255 16.8453 132.457 17.8816 132.457H30.0305L34.07 143.654L38.1248 132.457H50.2737C51.3107 132.457 52.3376 132.255 53.2956 131.863C54.2537 131.471 55.1243 130.896 55.8575 130.171C56.5908 129.447 57.1725 128.586 57.5693 127.639C57.9662 126.692 58.1705 125.678 58.1705 124.653V106.342C58.1706 105.306 57.9619 104.28 57.5565 103.324C57.1512 102.368 56.5572 101.502 55.8094 100.775C55.0616 100.049 54.1749 99.4766 53.201 99.0924C52.227 98.7082 51.1855 98.5196 50.137 98.5375V98.5375Z" fill="#E6E6E6"/>
<path d="M45.6574 111.67C45.6325 112.568 45.5 113.46 45.2626 114.327C44.9084 115.536 44.2975 116.656 43.4706 117.613C42.7062 118.496 41.8736 119.319 40.9801 120.075C39.4615 121.471 37.7758 122.821 36.1965 124.217C35.4827 124.848 34.7842 125.493 34.0856 126.153C34.0856 126.153 33.9945 126.153 33.9337 126.153C32.2633 124.653 30.532 123.152 28.7704 121.651C27.677 120.72 26.5836 119.79 25.5662 118.784C24.761 118.006 24.0617 117.129 23.4857 116.173C22.9768 115.239 22.6424 114.222 22.4986 113.171C22.39 112.421 22.3494 111.662 22.3771 110.905C22.3985 109.609 22.859 108.357 23.6849 107.351C24.5108 106.344 25.6545 105.64 26.9329 105.351C27.9429 105.112 28.9981 105.133 29.9978 105.411C30.9975 105.69 31.9082 106.217 32.6429 106.942C33.1339 107.38 33.5584 107.886 33.9034 108.443V108.533C34.1252 108.175 34.374 107.834 34.6475 107.513C35.4928 106.471 36.6528 105.725 37.9581 105.381C38.7486 105.156 39.578 105.095 40.3935 105.203C41.209 105.312 41.9929 105.586 42.6954 106.009C43.3979 106.433 44.0037 106.996 44.4744 107.663C44.9451 108.33 45.2704 109.086 45.4296 109.884C45.5754 110.469 45.6519 111.068 45.6574 111.67Z" fill="#757C7F"/>
</svg>
