<svg width="432" height="432" viewBox="0 0 432 432" fill="none" xmlns="http://www.w3.org/2000/svg">
<path d="M166.517 107.439C184.312 107.439 198.737 93.0139 198.737 75.2195C198.737 57.4252 184.312 43 166.517 43C148.723 43 134.298 57.4252 134.298 75.2195C134.298 93.0139 148.723 107.439 166.517 107.439Z" fill="#D5D8D9"/>
<path d="M166.516 97.862C179.021 97.862 189.159 87.7247 189.159 75.2197C189.159 62.7147 179.021 52.5774 166.516 52.5774C154.011 52.5774 143.874 62.7147 143.874 75.2197C143.874 87.7247 154.011 97.862 166.516 97.862Z" fill="#E6E6E6"/>
<path d="M166.517 60.0474V75.2198L175.643 82.8495" stroke="#9D9D9D" stroke-width="2.03" stroke-linecap="round" stroke-linejoin="round"/>
<path d="M361.084 333.92C361.084 333.92 361.782 355.487 346.202 360.559C330.623 365.631 277.331 374.104 250.677 358.03C224.024 341.957 240.359 320.797 263.074 322.497C285.789 324.198 361.084 333.92 361.084 333.92Z" fill="#D3EBF1"/>
<path d="M338.311 161.763C338.311 161.763 333.587 133.874 353.89 127.509C374.192 121.143 403.375 127.916 400.846 158.377C398.317 188.838 361.084 333.92 361.084 333.92L318.778 331.013C318.778 331.013 351.913 225.214 338.311 161.763Z" fill="#D3EBF1"/>
<path d="M294.799 199.752L336.61 209.62L322.978 268.29C322.237 271.436 320.864 274.398 318.942 276.997C317.021 279.596 314.591 281.777 311.801 283.408C309.01 285.039 305.917 286.086 302.71 286.485C299.502 286.884 296.247 286.627 293.142 285.729L216.699 263.697C216.699 263.697 206.264 273.87 197.239 269.903C188.214 265.935 205.959 251.577 214.679 251.853C223.399 252.129 293.157 258.625 293.157 258.625L294.799 199.752Z" fill="#F4A28C"/>
<path d="M294.799 199.752L336.61 209.62L322.978 268.29C322.237 271.436 320.864 274.398 318.942 276.997C317.021 279.596 314.591 281.777 311.801 283.408C309.01 285.039 305.917 286.086 302.71 286.485C299.502 286.884 296.247 286.627 293.142 285.729L216.699 263.697C216.699 263.697 206.264 273.87 197.239 269.903C188.214 265.935 205.959 251.577 214.679 251.853C223.399 252.129 293.157 258.625 293.157 258.625L294.799 199.752Z" fill="#757C7F"/>
<path d="M293.941 105.259L304.173 141.33L285.701 149.773L286.486 118.644L293.941 105.259Z" fill="#F4A28C"/>
<path opacity="0.31" d="M286.239 124.719C288.999 123.659 291.388 121.815 293.113 119.414C293.113 119.414 293.695 127.044 286.254 135.531L286.239 124.719Z" fill="#CE8172"/>
<path d="M270.543 106.436C270.543 106.436 271.677 119.123 275.267 127.073C275.613 127.84 276.108 128.532 276.723 129.107C277.338 129.682 278.061 130.13 278.85 130.425C279.639 130.719 280.479 130.855 281.321 130.823C282.162 130.792 282.989 130.594 283.754 130.241C287.736 128.381 292.561 124.718 292.779 117.844L294.581 106.218C294.581 106.218 295.467 98.9515 287.489 95.0567C279.51 91.1619 269.468 98.7335 270.543 106.436Z" fill="#F4A28C"/>
<path d="M271.677 114.4L269.032 119.821C268.89 120.13 268.826 120.469 268.848 120.808C268.869 121.148 268.975 121.476 269.155 121.765C269.335 122.053 269.585 122.292 269.88 122.46C270.176 122.628 270.509 122.72 270.849 122.727H275.804L271.677 114.4Z" fill="#F4A28C"/>
<path d="M343.877 164.713C343.877 164.713 357.814 169.756 358.206 199.752C358.599 229.748 340.011 282.59 340.287 310.071C340.563 337.553 306.658 370.049 255.618 340.256C204.578 310.464 297.865 300.276 297.865 300.276L343.877 164.713Z" fill="#757C7F"/>
<path d="M330.346 283.738C330.346 283.738 336.552 321.654 318.72 330.955C300.888 340.256 255.56 340.256 255.56 340.256L262.041 389.756H196.44L194.754 293.315L266.605 283.738H330.346Z" fill="#24285B"/>
<path d="M234.197 274.175H32V293.315H234.197V274.175Z" fill="#E6E6E6"/>
<path d="M94.5932 185.031L54.8311 274.176H115.753V266.241L72.6048 262.012L100.523 190.945L94.5932 185.031Z" fill="#E6E6E6"/>
<path d="M118.951 246.112L109.752 246.054L78.4912 147.433L85.4525 140.472L118.951 246.112Z" fill="#24285B"/>
<path d="M205.698 267.083H141.971V274.175H205.698V267.083Z" fill="#D3EBF1"/>
<path d="M270.471 100.216C270.471 100.216 266.968 113.746 285.788 114.749L297.952 119.356C297.952 119.356 302.923 108.194 300.176 98.4572C297.429 88.7201 274.176 80.3346 270.471 100.216Z" fill="#24285B"/>
<path d="M296.5 92.4989C300.737 92.4989 304.173 89.0634 304.173 84.8255C304.173 80.5876 300.737 77.1521 296.5 77.1521C292.262 77.1521 288.826 80.5876 288.826 84.8255C288.826 89.0634 292.262 92.4989 296.5 92.4989Z" fill="#24285B"/>
<path d="M291.398 114.4C291.398 114.4 291.703 131.156 279.307 132.857" stroke="#24285B" stroke-width="1.015" stroke-miterlimit="10"/>
<path d="M277.81 135.633C279.343 135.633 280.586 134.39 280.586 132.857C280.586 131.324 279.343 130.081 277.81 130.081C276.277 130.081 275.034 131.324 275.034 132.857C275.034 134.39 276.277 135.633 277.81 135.633Z" fill="#24285B"/>
<path d="M285.789 114.807C285.789 114.807 285.019 109.968 288.695 109.692C292.372 109.415 293.535 116.406 288.695 117.946L285.789 114.807Z" fill="#F4A28C"/>
<path d="M285.702 149.773L304.173 141.33C304.173 141.33 334.285 141.039 343.877 164.713C353.469 188.387 330.347 283.738 330.347 283.738H266.605C265.179 261.781 262.354 239.937 258.147 218.34C251.389 184.464 257.421 172.038 285.702 149.773Z" fill="#FF3E3E"/>
<path d="M302.633 159.205C297.28 163.134 292.925 168.264 289.916 174.183C286.907 180.102 285.33 186.645 285.309 193.285C285.397 215.898 290.425 258.479 274.991 258.218L265.021 265.063L266.562 283.738H308.708C308.708 283.738 327.426 282.372 330.507 231.114C333.588 179.856 302.633 159.205 302.633 159.205Z" fill="#757C7F"/>
<path d="M296.499 187.632L338.311 197.5L324.621 256.155C323.879 259.301 322.506 262.263 320.584 264.862C318.663 267.461 316.233 269.642 313.443 271.273C310.652 272.904 307.559 273.951 304.352 274.35C301.144 274.749 297.889 274.492 294.784 273.594L218.341 251.577C218.341 251.577 207.906 261.75 198.896 257.782C189.886 253.815 207.616 239.442 216.336 239.732C225.055 240.023 294.813 246.505 294.813 246.505L296.499 187.632Z" fill="#F4A28C"/>
<path d="M223.181 237.901H217.47V255.457H223.181V237.901Z" fill="#D3EBF1"/>
<path d="M281.4 153.247L280.586 141.359L304.173 135.546L307.225 141.49C307.225 141.49 302.109 152.433 281.4 153.247Z" fill="#FF3E3E"/>
<path d="M212.601 293.315H51.4453V389.756H212.601V293.315Z" fill="#D5D8D9"/>
<path d="M296.5 187.631C296.5 187.631 297.459 155.485 310.205 152.345C322.95 149.206 347.409 151.139 338.311 197.499L296.5 187.631Z" fill="#FF3E3E"/>
<path opacity="0.44" d="M296.5 187.631C296.5 187.631 297.459 155.485 310.205 152.345C322.95 149.206 347.409 151.139 338.311 197.499L296.5 187.631Z" fill="white"/>
<path d="M51.4453 293.315V323.413L212.616 304.113V293.315H51.4453Z" fill="#757C7F"/>
</svg>
